<?xml version='1.0' encoding='utf-8'?>
<svg xmlns="http://www.w3.org/2000/svg" version="1.1" id="Layer_1" x="0px" y="0px" viewBox="0 0 1920 1080" style="enable-background:new 0 0 1920 1080;"> <style type="text/css"> .st0{fill:#09C6A2;} .st1{fill:#29D3B2;} .st2{fill-rule:evenodd;clip-rule:evenodd;fill:#003333;} .st3{fill-rule:evenodd;clip-rule:evenodd;fill:#34495E;} .st4{opacity:0.5;fill-rule:evenodd;clip-rule:evenodd;} .st5{opacity:0.8;fill-rule:evenodd;clip-rule:evenodd;fill:#FFFFFF;} .st6{fill-rule:evenodd;clip-rule:evenodd;fill:#ECF0F1;} .st7{fill-rule:evenodd;clip-rule:evenodd;fill:#00546C;} .st8{opacity:0.3;fill-rule:evenodd;clip-rule:evenodd;} .st9{opacity:0.3;} .st10{opacity:0.5;fill:#FFFFFF;} .st11{fill-rule:evenodd;clip-rule:evenodd;fill:#333333;} .st12{fill:#FF4D56;} .st13{opacity:0.8;} .st14{fill:#FFFFFF;} .st15{fill:#FFBD35;} .st16{fill:#00416D;} .st17{opacity:0.4;fill:#FFFFFF;} .st18{fill:#231F20;} .st19{opacity:0.1;fill:#FFFFFF;} .st20{fill:#004A66;} .st21{fill:#EFC762;} .st22{fill:#EFEFEF;} .st23{fill:#FF9E0E;} .st24{fill:#FFBA3C;} .st25{fill:#BF6D00;} .st26{fill:#F0C800;} .st27{opacity:0.4;} .st28{fill:#E5E3E3;} .st29{fill:#FFEB24;} .st30{fill:#E5CD1A;} .st31{fill:#F4DA40;} .st32{fill:#D3B816;} .st33{fill:#F9E150;} .st34{fill:#EDCF3B;} .st35{fill:#E0BE2F;} .st36{opacity:0.9;fill:#FFFFFF;} </style> <rect id="Background_1_37_" x="0.2" y="2.2" class="st0" width="1920.8" height="1076.8"/> <ellipse id="Background_2_37_" class="st1" cx="960.6" cy="540.6" rx="359.4" ry="358"/> <g id="Online_Shop_1_"> <g id="Laptop_1_"> <g> <rect x="654.7" y="591.4" class="st2" width="295.8" height="13.7"/> <path class="st3" d="M1022.4,424.3H577.5c-20.4,0-26.7,12.8-22.8,27.9c0-0.2,0-0.4,0-0.5c0,1,0,2.1,0.3,3.1l32.2,121.5 c4.9,18.5,9.2,19,33.2,19l372,0c19.3,0,28.7,0,32.6-18.5l25.1-122c0.1-0.5,0.1-0.9,0.2-1.4c0,0,0,0,0,0l1.2-10.3 C1053.2,428.2,1033.7,424.3,1022.4,424.3z M555,450c-0.1,0.3-0.1,0.6-0.1,0.9C554.9,450.6,554.9,450.3,555,450z M555.9,447.2 c-0.1,0.1-0.1,0.3-0.2,0.4C555.8,447.5,555.9,447.3,555.9,447.2z M555.4,448.5c-0.1,0.2-0.2,0.5-0.2,0.7 C555.2,449,555.3,448.7,555.4,448.5z M573.6,436.6c0.7-0.1,1.3-0.1,2-0.1C574.9,436.5,574.2,436.6,573.6,436.6z M561.2,441.2 c0,0,0.1-0.1,0.1-0.1C561.3,441.1,561.2,441.2,561.2,441.2z M562.6,440.2c0.1-0.1,0.2-0.1,0.3-0.2 C562.8,440.1,562.7,440.2,562.6,440.2z M564.2,439.3c0.1-0.1,0.3-0.1,0.4-0.2C564.5,439.2,564.4,439.3,564.2,439.3z M565.9,438.5 c0.2-0.1,0.4-0.2,0.6-0.2C566.3,438.4,566.1,438.5,565.9,438.5z M567.7,437.8c0.2-0.1,0.5-0.2,0.7-0.2 C568.2,437.7,568,437.8,567.7,437.8z M569.6,437.3c0.3-0.1,0.6-0.1,0.9-0.2C570.2,437.2,569.9,437.2,569.6,437.3z M571.6,436.9 c0.4-0.1,0.8-0.1,1.2-0.2C572.3,436.8,572,436.8,571.6,436.9z"/> <path class="st4" d="M577.5,424.3h444.9c11.3,0,30.9,4,29.2,18.8l-1.2,10.3c-1.6-7.7-11.2-16.9-20.6-16.9H575.6 c-10.2,0-20.9,7.1-20.8,15.7C550.8,437.1,557.1,424.3,577.5,424.3L577.5,424.3z"/> <polygon class="st5" points="577.4,445.1 1030.3,444.6 1005.8,586.2 605.8,586.3 "/> <path class="st6" d="M599.6,599.4H1008c6.8,0,12.3,5.5,12.3,12.3v225.2c0,6.8-5.5,12.3-12.3,12.3H599.6 c-6.8,0-12.3-5.5-12.3-12.3V611.7C587.3,605,592.9,599.4,599.6,599.4L599.6,599.4z"/> <rect x="746" y="773.1" class="st7" width="115.7" height="60.6"/> <rect x="608.8" y="620.5" class="st8" width="390.1" height="141.8"/> <path class="st9" d="M850.9,803.9c0,14.4-2.5,26.1-5.6,26.1h-85.9c-3.1,0-5.6-11.7-5.6-26.1l0,0c0-14.4,2.5-26.1,5.6-26.1h85.9 C848.4,777.8,850.9,789.5,850.9,803.9L850.9,803.9z"/> </g> <g id="Light_1_"> <polygon class="st10" points="853.8,444.6 758.4,444.6 658.4,586.2 725.2,586.2 "/> <polygon class="st10" points="901.1,444.7 776.7,586.2 790.1,586.2 946.8,444.6 "/> </g> <g id="Keyboard_4_"> <path class="st11" d="M617.2,628.9h18.1c1.1,0,1.9,1.1,1.9,2.5v19.5c0,1.4-0.8,2.5-1.9,2.5h-18.1c-1.1,0-2-1.1-2-2.5v-19.5 C615.3,630.1,616.2,628.9,617.2,628.9L617.2,628.9z"/> <path class="st11" d="M646.6,628.9h18.1c1.1,0,2,1.1,2,2.5v19.5c0,1.4-0.9,2.5-2,2.5h-18.1c-1.1,0-2-1.1-2-2.5v-19.5 C644.7,630.1,645.6,628.9,646.6,628.9L646.6,628.9z"/> <path class="st11" d="M676,628.9h18.1c1.1,0,2,1.1,2,2.5v19.5c0,1.4-0.9,2.5-2,2.5H676c-1.1,0-2-1.1-2-2.5v-19.5 C674.1,630.1,675,628.9,676,628.9L676,628.9z"/> <path class="st11" d="M705.4,628.9h18.1c1.1,0,2,1.1,2,2.5v19.5c0,1.4-0.8,2.5-2,2.5h-18.1c-1.1,0-2-1.1-2-2.5v-19.5 C703.5,630.1,704.3,628.9,705.4,628.9L705.4,628.9z"/> <path class="st11" d="M734.8,628.9h18.1c1.1,0,2,1.1,2,2.5v19.5c0,1.4-0.9,2.5-2,2.5h-18.1c-1.1,0-2-1.1-2-2.5v-19.5 C732.8,630.1,733.7,628.9,734.8,628.9L734.8,628.9z"/> <path class="st11" d="M764.2,628.9h18.1c1.1,0,2,1.1,2,2.5v19.5c0,1.4-0.9,2.5-2,2.5h-18.1c-1.1,0-2-1.1-2-2.5v-19.5 C762.3,630.1,763.1,628.9,764.2,628.9L764.2,628.9z"/> <path class="st11" d="M793.6,628.9h18.1c1.1,0,2,1.1,2,2.5v19.5c0,1.4-0.9,2.5-2,2.5h-18.1c-1.1,0-2-1.1-2-2.5v-19.5 C791.6,630.1,792.5,628.9,793.6,628.9L793.6,628.9z"/> <path class="st11" d="M823,628.9h18.1c1.1,0,2,1.1,2,2.5v19.5c0,1.4-0.9,2.5-2,2.5H823c-1.1,0-2-1.1-2-2.5v-19.5 C821,630.1,821.9,628.9,823,628.9L823,628.9z"/> <path class="st11" d="M852.4,628.9h18.1c1.1,0,2,1.1,2,2.5v19.5c0,1.4-0.9,2.5-2,2.5h-18.1c-1.1,0-2-1.1-2-2.5v-19.5 C850.4,630.1,851.3,628.9,852.4,628.9L852.4,628.9z"/> <path class="st11" d="M881.8,628.9h18.1c1.1,0,2,1.1,2,2.5v19.5c0,1.4-0.9,2.5-2,2.5h-18.1c-1.1,0-2-1.1-2-2.5v-19.5 C879.8,630.1,880.7,628.9,881.8,628.9L881.8,628.9z"/> <path class="st11" d="M911.1,628.9h18.1c1.1,0,2,1.1,2,2.5v19.5c0,1.4-0.9,2.5-2,2.5h-18.1c-1.1,0-2-1.1-2-2.5v-19.5 C909.2,630.1,910.1,628.9,911.1,628.9L911.1,628.9z"/> <path class="st11" d="M661.4,663h18.1c1.1,0,2,1.1,2,2.5V685c0,1.4-0.9,2.5-2,2.5h-18.1c-1.1,0-2-1.1-2-2.5v-19.5 C659.4,664.1,660.3,663,661.4,663L661.4,663z"/> <path class="st11" d="M690.7,663h18.1c1.1,0,2,1.1,2,2.5V685c0,1.4-0.9,2.5-2,2.5h-18.1c-1.1,0-2-1.1-2-2.5v-19.5 C688.8,664.1,689.7,663,690.7,663L690.7,663z"/> <path class="st11" d="M720.1,663h18.1c1.1,0,2,1.1,2,2.5V685c0,1.4-0.9,2.5-2,2.5h-18.1c-1.1,0-1.9-1.1-1.9-2.5v-19.5 C718.2,664.1,719.1,663,720.1,663L720.1,663z"/> <path class="st11" d="M749.5,663h18.1c1.1,0,2,1.1,2,2.5V685c0,1.4-0.9,2.5-2,2.5h-18.1c-1.1,0-2-1.1-2-2.5v-19.5 C747.6,664.1,748.5,663,749.5,663L749.5,663z"/> <path class="st11" d="M778.9,663H797c1.1,0,1.9,1.1,1.9,2.5V685c0,1.4-0.9,2.5-1.9,2.5h-18.1c-1.1,0-2-1.1-2-2.5v-19.5 C777,664.1,777.9,663,778.9,663L778.9,663z"/> <path class="st11" d="M808.3,663h18.1c1.1,0,2,1.1,2,2.5V685c0,1.4-0.9,2.5-2,2.5h-18.1c-1.1,0-2-1.1-2-2.5v-19.5 C806.3,664.1,807.2,663,808.3,663L808.3,663z"/> <path class="st11" d="M837.7,663h18.1c1.1,0,2,1.1,2,2.5V685c0,1.4-0.9,2.5-2,2.5h-18.1c-1.1,0-2-1.1-2-2.5v-19.5 C835.8,664.1,836.6,663,837.7,663L837.7,663z"/> <path class="st11" d="M867.1,663h18.1c1.1,0,1.9,1.1,1.9,2.5V685c0,1.4-0.9,2.5-1.9,2.5h-18.1c-1.1,0-2-1.1-2-2.5v-19.5 C865.1,664.1,866,663,867.1,663L867.1,663z"/> <path class="st11" d="M896.5,663h18.1c1.1,0,1.9,1.1,1.9,2.5V685c0,1.4-0.9,2.5-1.9,2.5h-18.1c-1.1,0-2-1.1-2-2.5v-19.5 C894.5,664.1,895.4,663,896.5,663L896.5,663z"/> <path class="st11" d="M925.9,663H944c1.1,0,2,1.1,2,2.5V685c0,1.4-0.9,2.5-2,2.5h-18.1c-1.1,0-2-1.1-2-2.5v-19.5 C923.9,664.1,924.8,663,925.9,663L925.9,663z"/> <path class="st11" d="M940.6,628.9h18.1c1.1,0,2,1.1,2,2.5v19.5c0,1.4-0.9,2.5-2,2.5h-18.1c-1.1,0-2-1.1-2-2.5v-19.5 C938.6,630.1,939.5,628.9,940.6,628.9L940.6,628.9z"/> <path class="st11" d="M969.9,628.9H988c1.1,0,2,1.1,2,2.5v19.5c0,1.4-0.9,2.5-2,2.5h-18.1c-1.1,0-2-1.1-2-2.5v-19.5 C968,630.1,968.9,628.9,969.9,628.9L969.9,628.9z"/> <path class="st11" d="M955.8,663H988c1.1,0,2,1.1,2,2.5V685c0,1.4-0.9,2.5-2,2.5h-32.3c-1.1,0-2-1.1-2-2.5v-19.5 C953.8,664.1,954.7,663,955.8,663L955.8,663z"/> <path class="st11" d="M617.5,663H651c1.1,0,2,1.1,2,2.5V685c0,1.4-0.9,2.5-2,2.5h-33.5c-1.1,0-2-1.1-2-2.5v-19.5 C615.6,664.1,616.4,663,617.5,663L617.5,663z"/> <path class="st11" d="M617.5,697h40c1.1,0,2,1.1,2,2.5v19.5c0,1.4-0.9,2.5-2,2.5h-40c-1.1,0-2-1.1-2-2.5v-19.5 C615.6,698.2,616.4,697,617.5,697L617.5,697z"/> <path class="st11" d="M617.5,731.1h18c1.1,0,2,1.1,2,2.5v19.5c0,1.4-0.9,2.5-2,2.5h-18c-1.1,0-2-1.1-2-2.5v-19.5 C615.6,732.2,616.4,731.1,617.5,731.1L617.5,731.1z"/> <path class="st11" d="M646.9,731.1h18c1.1,0,2,1.1,2,2.5v19.5c0,1.4-0.9,2.5-2,2.5h-18c-1.1,0-2-1.1-2-2.5v-19.5 C644.9,732.2,645.8,731.1,646.9,731.1L646.9,731.1z"/> <path class="st11" d="M676.2,731.1h18c1.1,0,2,1.1,2,2.5v19.5c0,1.4-0.8,2.5-2,2.5h-18c-1.1,0-2-1.1-2-2.5v-19.5 C674.3,732.2,675.2,731.1,676.2,731.1L676.2,731.1z"/> <path class="st11" d="M705.6,731.1h187.9c1.1,0,2,1.1,2,2.5v19.5c0,1.4-0.9,2.5-2,2.5H705.6c-1.1,0-2-1.1-2-2.5v-19.5 C703.6,732.2,704.5,731.1,705.6,731.1L705.6,731.1z"/> <path class="st11" d="M668.4,697.4h18.1c1.1,0,2,1.1,2,2.5v19.5c0,1.4-0.9,2.5-2,2.5h-18.1c-1.1,0-2-1.1-2-2.5v-19.5 C666.4,698.5,667.3,697.4,668.4,697.4L668.4,697.4z"/> <path class="st11" d="M697.8,697.4h18.1c1.1,0,2,1.1,2,2.5v19.5c0,1.4-0.9,2.5-2,2.5h-18.1c-1.1,0-2-1.1-2-2.5v-19.5 C695.8,698.5,696.7,697.4,697.8,697.4L697.8,697.4z"/> <path class="st11" d="M727.2,697.4h18.1c1.1,0,2,1.1,2,2.5v19.5c0,1.4-0.9,2.5-2,2.5h-18.1c-1.1,0-1.9-1.1-1.9-2.5v-19.5 C725.2,698.5,726.1,697.4,727.2,697.4L727.2,697.4z"/> <path class="st11" d="M756.6,697.4h18.1c1.1,0,2,1.1,2,2.5v19.5c0,1.4-0.9,2.5-2,2.5h-18.1c-1.1,0-2-1.1-2-2.5v-19.5 C754.6,698.5,755.5,697.4,756.6,697.4L756.6,697.4z"/> <path class="st11" d="M785.9,697.4h18.1c1.1,0,1.9,1.1,1.9,2.5v19.5c0,1.4-0.9,2.5-1.9,2.5h-18.1c-1.1,0-2-1.1-2-2.5v-19.5 C784,698.5,784.9,697.4,785.9,697.4L785.9,697.4z"/> <path class="st11" d="M815.3,697.4h18.1c1.1,0,2,1.1,2,2.5v19.5c0,1.4-0.9,2.5-2,2.5h-18.1c-1.1,0-2-1.1-2-2.5v-19.5 C813.4,698.5,814.2,697.4,815.3,697.4L815.3,697.4z"/> <path class="st11" d="M844.7,697.4h18.1c1.1,0,2,1.1,2,2.5v19.5c0,1.4-0.9,2.5-2,2.5h-18.1c-1.1,0-2-1.1-2-2.5v-19.5 C842.8,698.5,843.7,697.4,844.7,697.4L844.7,697.4z"/> <path class="st11" d="M874.1,697.4h18.1c1.1,0,1.9,1.1,1.9,2.5v19.5c0,1.4-0.9,2.5-1.9,2.5h-18.1c-1.1,0-2-1.1-2-2.5v-19.5 C872.2,698.5,873,697.4,874.1,697.4L874.1,697.4z"/> <path class="st11" d="M903.5,697.4h33.7c1.1,0,2,1.1,2,2.5v19.5c0,1.4-0.9,2.5-2,2.5h-33.7c-1.1,0-2-1.1-2-2.5v-19.5 C901.5,698.5,902.4,697.4,903.5,697.4L903.5,697.4z"/> <path class="st11" d="M947.8,697h40c1.1,0,2,1.1,2,2.5v19.5c0,1.4-0.9,2.5-2,2.5h-40c-1.1,0-2-1.1-2-2.5v-19.5 C945.8,698.2,946.7,697,947.8,697L947.8,697z"/> <path class="st11" d="M951.4,731.1h15.1c0.4,0,0.7,0.4,0.7,0.8v6.8c0,0.5-0.3,0.9-0.7,0.9h-15.1c-0.4,0-0.7-0.4-0.7-0.9v-6.8 C950.7,731.5,951,731.1,951.4,731.1L951.4,731.1z"/> <path class="st11" d="M951.4,745.8h15.1c0.4,0,0.7,0.4,0.7,0.9v6.7c0,0.5-0.3,0.9-0.7,0.9h-15.1c-0.4,0-0.7-0.4-0.7-0.9v-6.7 C950.7,746.2,951,745.8,951.4,745.8L951.4,745.8z"/> <path class="st11" d="M929,745.8h15.1c0.4,0,0.7,0.4,0.7,0.9v6.7c0,0.5-0.3,0.9-0.7,0.9H929c-0.4,0-0.7-0.4-0.7-0.9v-6.7 C928.4,746.2,928.7,745.8,929,745.8L929,745.8z"/> <path class="st11" d="M973.7,745.8h15.1c0.4,0,0.7,0.4,0.7,0.9v6.7c0,0.5-0.3,0.9-0.7,0.9h-15.1c-0.4,0-0.7-0.4-0.7-0.9v-6.7 C973,746.2,973.3,745.8,973.7,745.8L973.7,745.8z"/> <path class="st11" d="M902.8,731.1h18.1c1.1,0,2,1.1,2,2.5v19.5c0,1.4-0.9,2.5-2,2.5h-18.1c-1.1,0-2-1.1-2-2.5v-19.5 C900.8,732.2,901.7,731.1,902.8,731.1L902.8,731.1z"/> </g> <g> <path class="st12" d="M952,536.4c0,6.5-5.3,11.8-11.8,11.8h-79.5c-6.5,0-11.8-5.3-11.8-11.8v-25.6c0-6.5,5.3-11.8,11.8-11.8h79.5 c6.5,0,11.8,5.3,11.8,11.8V536.4z"/> <g class="st13"> <path class="st14" d="M870.6,535.8c-0.6,0-1.2,0-1.8,0c-0.7,0-1.3-0.1-2-0.1c-0.7-0.1-1.3-0.1-2-0.2c-0.6-0.1-1.2-0.2-1.8-0.3 V508c0.5-0.1,1.1-0.2,1.8-0.3c0.6-0.1,1.3-0.1,2-0.2c0.7-0.1,1.3-0.1,2-0.1c0.6,0,1.3,0,1.8,0c1.6,0,3.1,0.1,4.6,0.4 c1.4,0.2,2.6,0.7,3.7,1.2c1,0.6,1.9,1.3,2.4,2.3c0.6,0.9,0.9,2.1,0.9,3.5c0,1.5-0.4,2.8-1.1,3.8c-0.7,1-1.7,1.7-2.9,2.2 c1.6,0.5,3,1.3,3.9,2.3c1,1.1,1.5,2.5,1.5,4.5c0,2.8-1,4.9-3.1,6.3C878.3,535.1,875,535.8,870.6,535.8z M866.9,519.4h4.1 c1,0,1.9-0.1,2.7-0.2c0.9-0.1,1.6-0.4,2.3-0.7c0.6-0.4,1.1-0.8,1.5-1.4c0.4-0.6,0.5-1.3,0.5-2.1c0-0.8-0.2-1.5-0.6-2 c-0.4-0.6-0.9-1-1.6-1.3c-0.7-0.3-1.4-0.6-2.3-0.8c-0.9-0.2-1.8-0.2-2.8-0.2c-1,0-1.8,0-2.3,0c-0.6,0-1.1,0.1-1.5,0.1V519.4z M866.9,522.5v9.9c0.3,0,0.6,0.1,1.1,0.1c0.4,0,0.8,0,1.2,0.1c0.5,0,1,0,1.6,0c1.2,0,2.3-0.1,3.3-0.2c1-0.1,2-0.4,2.7-0.8 c0.8-0.4,1.4-0.9,1.9-1.6c0.5-0.7,0.7-1.5,0.7-2.6c0-0.9-0.2-1.7-0.5-2.3c-0.4-0.6-0.9-1.1-1.5-1.5c-0.7-0.4-1.5-0.6-2.4-0.8 c-0.9-0.2-1.9-0.2-3.1-0.2H866.9z"/> <path class="st14" d="M899.4,536.2c-1.8,0-3.4-0.3-4.8-0.9c-1.4-0.6-2.5-1.3-3.3-2.3c-0.9-1-1.5-2.2-1.9-3.5 c-0.4-1.4-0.6-2.8-0.6-4.4v-17.6h3.9v17.2c0,2.8,0.6,4.8,1.9,6.1c1.2,1.3,2.9,1.9,4.9,1.9c1,0,1.9-0.2,2.7-0.5 c0.8-0.3,1.5-0.8,2.1-1.4c0.6-0.7,1.1-1.5,1.4-2.5c0.3-1,0.5-2.2,0.5-3.6v-17.2h3.9v17.6c0,1.6-0.2,3-0.6,4.4 c-0.4,1.3-1.1,2.5-1.9,3.5c-0.9,1-2,1.8-3.3,2.3C902.9,535.9,901.3,536.2,899.4,536.2z"/> <path class="st14" d="M923.5,535.6v-11.3c-1.9-2.9-3.6-5.7-5.3-8.5c-1.6-2.8-3.2-5.6-4.7-8.3h4.6c1,2.2,2.2,4.5,3.4,6.7 c1.3,2.3,2.6,4.5,3.9,6.6c1.3-2.1,2.6-4.3,3.9-6.6c1.3-2.3,2.4-4.5,3.5-6.7h4.4c-1.5,2.7-3,5.4-4.7,8.2 c-1.6,2.8-3.4,5.6-5.2,8.5v11.3H923.5z"/> </g> </g> <g id="Buy_7_"> <polygon class="st15" points="707.1,483.7 725.2,539.2 805.7,539.2 823.8,483.7 "/> <path class="st16" d="M830.1,480.2c0,3.7-3,6.8-6.8,6.8H707.6c-3.7,0-6.8-3-6.8-6.8l0,0c0-3.7,3-6.8,6.8-6.8h115.7 C827.1,473.4,830.1,476.4,830.1,480.2L830.1,480.2z"/> <g> <path class="st17" d="M736,528.5c0,1.8-1.4,3.2-3.2,3.2l0,0c-1.8,0-3.2-1.5-3.2-3.2v-33.7c0-1.8,1.4-3.2,3.2-3.2l0,0 c1.8,0,3.2,1.4,3.2,3.2V528.5z"/> <path class="st17" d="M749.1,528.3c0,1.8-1.4,3.2-3.2,3.2l0,0c-1.8,0-3.2-1.4-3.2-3.2v-33.7c0-1.8,1.4-3.2,3.2-3.2l0,0 c1.8,0,3.2,1.4,3.2,3.2V528.3z"/> <path class="st17" d="M761.8,528.5c0,1.8-1.4,3.2-3.2,3.2l0,0c-1.8,0-3.2-1.5-3.2-3.2v-33.7c0-1.8,1.5-3.2,3.2-3.2l0,0 c1.8,0,3.2,1.4,3.2,3.2V528.5z"/> <path class="st17" d="M774.8,528.3c0,1.8-1.5,3.2-3.2,3.2l0,0c-1.8,0-3.2-1.4-3.2-3.2v-33.7c0-1.8,1.4-3.2,3.2-3.2l0,0 c1.8,0,3.2,1.4,3.2,3.2V528.3z"/> <path class="st17" d="M787.8,528.5c0,1.8-1.5,3.2-3.2,3.2l0,0c-1.8,0-3.2-1.5-3.2-3.2v-33.7c0-1.8,1.4-3.2,3.2-3.2l0,0 c1.8,0,3.2,1.4,3.2,3.2V528.5z"/> <path class="st17" d="M801.3,528.5c0,1.8-1.4,3.2-3.2,3.2l0,0c-1.8,0-3.2-1.5-3.2-3.2v-33.7c0-1.8,1.5-3.2,3.2-3.2l0,0 c1.8,0,3.2,1.4,3.2,3.2V528.5z"/> </g> <g> <path class="st18" d="M812.1,547.3h-81.3c-1.1,0-2.1-0.9-2.1-2.1c0-1.1,0.9-2.1,2.1-2.1h79.8l27.2-76.4c0.3-0.8,1.1-1.4,2-1.4 h23.7c1.1,0,2.1,0.9,2.1,2.1c0,1.1-0.9,2.1-2.1,2.1h-22.2L814,545.9C813.8,546.7,813,547.3,812.1,547.3z"/> </g> <g> <path class="st18" d="M758.8,560.6c0,6.1-5,11.1-11.1,11.1c-6.1,0-11.1-5-11.1-11.1c0-6.1,5-11.1,11.1-11.1 C753.8,549.5,758.8,554.4,758.8,560.6z"/> <path class="st19" d="M756.4,560.6c0,4.8-3.9,8.8-8.8,8.8c-4.8,0-8.8-3.9-8.8-8.8c0-4.8,3.9-8.8,8.8-8.8 C752.5,551.8,756.4,555.7,756.4,560.6z"/> <path class="st20" d="M753.4,560.6c0,3.1-2.6,5.7-5.7,5.7c-3.1,0-5.7-2.6-5.7-5.7c0-3.1,2.6-5.7,5.7-5.7 C750.8,554.9,753.4,557.4,753.4,560.6z"/> </g> <g> <path class="st18" d="M806.6,560.6c0,6.1-5,11.1-11.1,11.1c-6.1,0-11.1-5-11.1-11.1c0-6.1,5-11.1,11.1-11.1 C801.7,549.5,806.6,554.4,806.6,560.6z"/> <path class="st19" d="M804.3,560.6c0,4.8-3.9,8.8-8.8,8.8c-4.8,0-8.8-3.9-8.8-8.8c0-4.8,3.9-8.8,8.8-8.8 C800.4,551.8,804.3,555.7,804.3,560.6z"/> <path class="st20" d="M801.2,560.6c0,3.1-2.6,5.7-5.7,5.7c-3.1,0-5.7-2.6-5.7-5.7c0-3.1,2.6-5.7,5.7-5.7 C798.7,554.9,801.2,557.4,801.2,560.6z"/> </g> </g> </g> <g id="Hand_2_"> <path class="st21" d="M779.9,818l0.1,5.8c0,0-5.1,3.5-5.5,3.5l0-2.5v-3.1v-70.1c0-4.1-3.3-7.4-7.4-7.4h-0.4 c-4.1,0-7.4,3.3-7.4,7.4v38.3c-1.6,1-3.6,1-4.8-0.3v-58.2c0-4.1-3.3-7.4-7.4-7.4h-0.4c-4.1,0-7.4,3.3-7.4,7.4v58.5 c-1.1,0.8-2.9,0.6-4.1,0v-42.8c0-4.1-3.3-7.4-7.4-7.4h-0.4c-4.1,0-7.4,3.3-7.4,7.4v44.6c-1.4,0.9-3.4,0.9-4.5-0.1v-23.4 c0-4.1-3.3-7.4-7.4-7.4h-0.4c-4.1,0-7.4,3.3-7.4,7.4v50.2v22.9v9.9l8.1,12l-0.1,57.1c17.1,7.3,35.3,12.7,54.3,15.7l0.4-70.9 l12-13.9V844c5.3-2.4,11-7.8,16.3-14l-0.6-21.2C784.9,805.9,779.7,812.3,779.9,818z"/> <path class="st21" d="M900.4,797.8H900c-4.1,0-7.4,3.3-7.4,7.4v23.4c-1.2,1-3.1,1.1-4.5,0.1v-44.6c0-4.1-3.3-7.4-7.4-7.4h-0.4 c-4.1,0-7.4,3.3-7.4,7.4v42.8c-1.2,0.7-3,0.8-4.1,0v-58.5c0-4.1-3.3-7.4-7.4-7.4h-0.4c-4.1,0-7.4,3.3-7.4,7.4v58.2 c-1.1,1.3-3.1,1.3-4.8,0.4v-38.3c0-4.1-3.3-7.4-7.4-7.4h-0.4c-4.1,0-7.4,3.3-7.4,7.4v70.1v3.1l0,2.5c-0.4,0-5.5-3.5-5.5-3.5 l0.1-5.8c0.2-5.7-5-12.1-10.2-9.3L817,867c5.2,6.3,11,11.7,16.3,14.1v7.3l12,13.9l0.2,32.1c19.1-3.9,37.4-10.2,54.4-18.4l0-15.6 l8.1-12v-9.9v-22.9v-50.2C907.9,801.1,904.6,797.8,900.4,797.8z"/> <path class="st22" d="M712.3,771.8c0,2.7-2.2,4.9-4.9,4.9l0,0c-2.7,0-4.9-2.2-4.9-4.9v-3.6c0-2.7,2.2-4.9,4.9-4.9l0,0 c2.7,0,4.9,2.2,4.9,4.9V771.8z"/> <path class="st22" d="M731.6,750.7c0,2.7-2.2,4.9-4.9,4.9l0,0c-2.7,0-4.9-2.2-4.9-4.9v-3.6c0-2.7,2.2-4.9,4.9-4.9l0,0 c2.7,0,4.9,2.2,4.9,4.9V750.7z"/> <path class="st22" d="M751.8,735.8c0,2.7-2.2,4.9-4.9,4.9l0,0c-2.7,0-4.9-2.2-4.9-4.9v-3.6c0-2.7,2.2-4.9,4.9-4.9l0,0 c2.7,0,4.9,2.2,4.9,4.9V735.8z"/> <path class="st22" d="M771.5,756.1c0,2.7-2.2,4.9-4.9,4.9l0,0c-2.7,0-4.9-2.2-4.9-4.9v-3.6c0-2.7,2.2-4.9,4.9-4.9l0,0 c2.7,0,4.9,2.2,4.9,4.9V756.1z"/> <path class="st22" d="M785.8,813.1v3.6c0,2.6,2.1,4.7,4.6,4.9l-0.4-12.9c-0.2-0.1-0.5-0.2-0.7-0.3 C787.3,809,785.8,810.9,785.8,813.1z"/> <path class="st22" d="M821.9,850.2v3.6c0,2.6-2.1,4.7-4.6,4.9l0.4-12.9c0.2-0.1,0.5-0.2,0.7-0.3 C820.4,846.1,821.9,848,821.9,850.2z"/> <path class="st22" d="M845.6,793.8c0,2.7-2.2,4.9-4.9,4.9l0,0c-2.7,0-4.9-2.2-4.9-4.9v-3.6c0-2.7,2.2-4.9,4.9-4.9l0,0 c2.7,0,4.9,2.2,4.9,4.9V793.8z"/> <path class="st22" d="M866.1,773c0,2.7-2.2,4.9-4.9,4.9l0,0c-2.7,0-4.9-2.2-4.9-4.9v-3.6c0-2.7,2.2-4.9,4.9-4.9l0,0 c2.7,0,4.9,2.2,4.9,4.9V773z"/> <path class="st22" d="M885.4,788.3c0,2.7-2.2,4.9-4.9,4.9l0,0c-2.7,0-4.9-2.2-4.9-4.9v-3.6c0-2.7,2.2-4.9,4.9-4.9l0,0 c2.7,0,4.9,2.2,4.9,4.9V788.3z"/> <path class="st22" d="M905.3,810c0,2.7-2.2,4.9-4.9,4.9l0,0c-2.7,0-4.9-2.2-4.9-4.9v-3.6c0-2.7,2.2-4.9,4.9-4.9l0,0 c2.7,0,4.9,2.2,4.9,4.9V810z"/> </g> <g id="Buy_6_"> <polygon class="st15" points="946.5,208.2 904.3,338 715.6,338 673.4,208.2 "/> <path class="st16" d="M658.6,199.9c0,8.8,7.1,15.9,15.9,15.9h271c8.8,0,15.9-7.1,15.9-15.9l0,0c0-8.8-7.1-15.9-15.9-15.9h-271 C665.7,184,658.6,191.1,658.6,199.9L658.6,199.9z"/> <g> <path class="st17" d="M878.8,313c0,4.2,3.4,7.6,7.6,7.6l0,0c4.2,0,7.6-3.4,7.6-7.6v-78.9c0-4.2-3.4-7.6-7.6-7.6l0,0 c-4.2,0-7.6,3.4-7.6,7.6V313z"/> <path class="st17" d="M848.2,312.6c0,4.2,3.4,7.6,7.6,7.6l0,0c4.2,0,7.6-3.4,7.6-7.6v-78.9c0-4.2-3.4-7.6-7.6-7.6l0,0 c-4.2,0-7.6,3.4-7.6,7.6V312.6z"/> <path class="st17" d="M818.6,313c0,4.2,3.4,7.6,7.6,7.6l0,0c4.2,0,7.6-3.4,7.6-7.6v-78.9c0-4.2-3.4-7.6-7.6-7.6l0,0 c-4.2,0-7.6,3.4-7.6,7.6V313z"/> <path class="st17" d="M788,312.6c0,4.2,3.4,7.6,7.6,7.6l0,0c4.2,0,7.6-3.4,7.6-7.6v-78.9c0-4.2-3.4-7.6-7.6-7.6l0,0 c-4.2,0-7.6,3.4-7.6,7.6V312.6z"/> <path class="st17" d="M757.7,313c0,4.2,3.4,7.6,7.6,7.6l0,0c4.2,0,7.6-3.4,7.6-7.6v-78.9c0-4.2-3.4-7.6-7.6-7.6l0,0 c-4.2,0-7.6,3.4-7.6,7.6V313z"/> <path class="st17" d="M726,313c0,4.2,3.4,7.6,7.6,7.6l0,0c4.2,0,7.6-3.4,7.6-7.6v-78.9c0-4.2-3.4-7.6-7.6-7.6l0,0 c-4.2,0-7.6,3.4-7.6,7.6V313z"/> </g> <g> <path class="st18" d="M700.8,357h190.3c2.7,0,4.9-2.2,4.9-4.9c0-2.7-2.2-4.9-4.9-4.9H704.2l-63.7-178.8c-0.7-1.9-2.5-3.2-4.6-3.2 h-55.5c-2.7,0-4.9,2.2-4.9,4.9c0,2.7,2.2,4.9,4.9,4.9h52.1l63.7,178.8C696.9,355.7,698.7,357,700.8,357z"/> </g> <g> <path class="st18" d="M825.7,388.1c0,14.3,11.6,25.9,26,25.9c14.3,0,25.9-11.6,25.9-25.9c0-14.3-11.6-26-25.9-26 C837.3,362.1,825.7,373.8,825.7,388.1z"/> <path class="st19" d="M831.1,388.1c0,11.3,9.2,20.5,20.5,20.5c11.3,0,20.5-9.2,20.5-20.5c0-11.3-9.2-20.5-20.5-20.5 C840.3,367.5,831.1,376.7,831.1,388.1z"/> <path class="st20" d="M838.3,388.1c0,7.4,6,13.4,13.4,13.4c7.4,0,13.4-6,13.4-13.4c0-7.4-6-13.4-13.4-13.4 C844.2,374.7,838.3,380.7,838.3,388.1z"/> </g> <g> <path class="st18" d="M713.6,388.1c0,14.3,11.6,25.9,26,25.9c14.3,0,26-11.6,26-25.9c0-14.3-11.6-26-26-26 C725.2,362.1,713.6,373.8,713.6,388.1z"/> <path class="st19" d="M719,388.1c0,11.3,9.2,20.5,20.5,20.5c11.3,0,20.5-9.2,20.5-20.5c0-11.3-9.2-20.5-20.5-20.5 C728.2,367.5,719,376.7,719,388.1z"/> <path class="st20" d="M726.2,388.1c0,7.4,6,13.4,13.4,13.4c7.4,0,13.4-6,13.4-13.4c0-7.4-6-13.4-13.4-13.4 C732.1,374.7,726.2,380.7,726.2,388.1z"/> </g> </g> <g id="Shop"> <g> <polygon class="st23" points="1361.4,780.3 1087.6,799.1 1090.6,445.6 1364.2,448.4 "/> <polygon class="st24" points="1325.3,836.8 1051.6,834 1054.6,480.5 1328.2,483.3 "/> <polygon class="st25" points="1364.2,453.9 1306.7,470.3 1328.2,483.3 1325.6,800 1361.4,780.3 "/> <path class="st25" d="M1090.6,445.6c0,0-2.3,22.7-36,34.9l48.7,0.5l7.3-17.6L1090.6,445.6z"/> <polygon class="st26" points="1110.6,463.4 1054.6,480.5 1103.3,481 "/> <polygon class="st26" points="1306.7,470.3 1306.6,483.1 1328.2,483.3 "/> </g> <path class="st27" d="M1141.2,531c-2,4.2-6.7,5.8-10.4,3.6c-3.8-2.2-5.3-7.3-3.3-11.5c2-4.2,6.7-5.8,10.4-3.6 C1141.7,521.6,1143.2,526.8,1141.2,531z"/> <path class="st27" d="M1259.7,530.1c-2,4.2-6.7,5.8-10.4,3.6c-3.8-2.2-5.3-7.3-3.3-11.5c2-4.2,6.7-5.8,10.4-3.6 C1260.2,520.8,1261.7,525.9,1259.7,530.1z"/> <path class="st22" d="M1254.6,529.7c0.8-1.7,0.2-3.8-1.3-4.7c-1.5-0.9-3.4-0.2-4.2,1.5c-0.1,0.1-0.1,0.3-0.2,0.4 c-17.1,36.1-35.3,54.3-54.2,54.1c-30.9-0.3-54.9-49.8-57.3-55.1c-0.2-0.9-0.8-1.6-1.6-2.1c-1.5-0.9-3.4-0.2-4.2,1.5 c-0.6,1.2-0.4,2.6,0.2,3.6c2.2,4.7,18.6,39.1,42.9,53c6.2,3.5,12.8,5.7,19.9,5.8c21.4,0.2,41.5-19.2,59.7-57.7 C1254.5,530,1254.6,529.9,1254.6,529.7z"/> <g> <path class="st28" d="M1113.8,694c7.9,0,11.9-3,11.9-8.9c0-1.8-0.3-3.4-1.1-4.7c-0.7-1.3-1.7-2.4-2.9-3.3 c-1.2-0.9-2.6-1.8-4.1-2.4c-1.5-0.7-3.2-1.4-4.9-2.1c-2-0.7-3.9-1.6-5.6-2.5c-1.8-0.9-3.3-2.1-4.6-3.4c-1.3-1.3-2.3-2.8-3.1-4.6 c-0.8-1.8-1.1-3.9-1.1-6.4c0-5.2,1.6-9.3,4.8-12.2c3.2-2.9,7.7-4.4,13.4-4.4c3.3,0,6.3,0.4,8.9,1.2c2.7,0.8,4.7,1.6,5.9,2.5 l-2.4,6.8c-1.1-0.7-2.7-1.5-4.9-2.2c-2.2-0.7-4.7-1.1-7.5-1.1c-1.5,0-2.8,0.2-4.1,0.5c-1.3,0.3-2.3,0.9-3.3,1.5 c-0.9,0.7-1.7,1.6-2.2,2.6c-0.5,1.1-0.8,2.3-0.8,3.7c0,1.6,0.3,3,0.9,4c0.6,1.1,1.4,2,2.4,2.9c1,0.8,2.3,1.6,3.6,2.3 c1.4,0.7,2.9,1.4,4.6,2.1c2.3,1,4.5,2.1,6.5,3.1c2,1,3.6,2.3,5.1,3.7c1.4,1.4,2.5,3.1,3.3,5.1c0.8,2,1.2,4.4,1.2,7.2 c0,5.2-1.7,9.2-5.2,12c-3.5,2.8-8.3,4.2-14.7,4.2c-2.1,0-4.1-0.2-5.9-0.5c-1.8-0.3-3.4-0.7-4.8-1.1c-1.4-0.4-2.6-0.9-3.6-1.4 c-1-0.5-1.8-0.9-2.4-1.2l2.3-6.9c1.2,0.7,3,1.6,5.5,2.5C1107.2,693.5,1110.2,694,1113.8,694z"/> <path class="st28" d="M1176.9,640.4h7.6v59.5h-7.6v-27.5h-26.5v27.5h-7.6v-59.5h7.6v24.8h26.5V640.4z"/> <path class="st28" d="M1195.7,670.1c0-5.1,0.7-9.6,2.1-13.5c1.4-3.9,3.3-7.1,5.6-9.7c2.4-2.6,5.1-4.6,8.3-5.9c3.2-1.3,6.5-2,10-2 c3.5,0,6.8,0.7,9.9,2c3.1,1.3,5.8,3.3,8.2,5.9c2.3,2.6,4.2,5.9,5.6,9.7c1.4,3.9,2.1,8.4,2.1,13.5c0,5.1-0.7,9.6-2.1,13.5 c-1.4,3.9-3.2,7.1-5.6,9.7c-2.3,2.6-5.1,4.6-8.2,5.9c-3.1,1.3-6.4,2-9.9,2c-3.5,0-6.9-0.7-10-2c-3.2-1.3-5.9-3.3-8.3-5.9 c-2.4-2.6-4.2-5.9-5.6-9.7C1196.4,679.7,1195.7,675.2,1195.7,670.1z M1203.7,670.1c0,3.6,0.4,6.9,1.3,9.8c0.8,2.9,2,5.5,3.6,7.5 c1.5,2.1,3.4,3.6,5.6,4.8c2.2,1.1,4.7,1.7,7.5,1.7c2.8,0,5.2-0.6,7.4-1.7c2.2-1.1,4.1-2.7,5.6-4.8c1.5-2.1,2.7-4.6,3.6-7.5 c0.8-2.9,1.3-6.2,1.3-9.8c0-3.6-0.4-6.9-1.3-9.8c-0.8-3-2-5.5-3.6-7.5c-1.5-2.1-3.4-3.6-5.6-4.8c-2.2-1.1-4.7-1.7-7.4-1.7 c-2.8,0-5.3,0.6-7.5,1.7c-2.2,1.1-4.1,2.7-5.6,4.8c-1.5,2.1-2.7,4.6-3.6,7.5C1204.1,663.2,1203.7,666.5,1203.7,670.1z"/> <path class="st28" d="M1273.1,639.8c7.6,0,13.5,1.6,17.6,4.8c4.1,3.2,6.1,7.9,6.1,14.2c0,3.4-0.6,6.4-1.7,8.8 c-1.1,2.4-2.7,4.4-4.8,5.9c-2.1,1.5-4.7,2.6-7.7,3.3c-3,0.7-6.4,1-10.2,1h-6v22.1h-7.6v-58.7c2.1-0.6,4.5-1,7.1-1.2 C1268.5,639.9,1270.9,639.8,1273.1,639.8z M1273.7,647.1c-3.2,0-5.7,0.1-7.4,0.3v23.4h5.7c2.6,0,5-0.2,7-0.6 c2.1-0.4,3.8-1,5.3-1.9c1.4-0.9,2.5-2.1,3.3-3.6c0.8-1.5,1.2-3.5,1.2-5.9c0-2.3-0.4-4.2-1.2-5.7c-0.8-1.5-1.9-2.7-3.3-3.6 c-1.4-0.9-3-1.5-4.8-1.8C1277.7,647.3,1275.8,647.1,1273.7,647.1z"/> </g> </g> <g id="Diamon"> <polygon class="st29" points="1343.1,237.2 1290.1,148.6 1103.5,148.6 1048.3,237.2 "/> <polygon class="st30" points="1048.3,237.2 1195.7,437.7 1343.1,237.2 "/> <polygon class="st31" points="1048.3,237.2 1195.7,437.7 1129,237.2 "/> <polygon class="st32" points="1343.1,237.2 1195.7,437.7 1262.4,237.2 "/> <polygon class="st33" points="1129,237.2 1103.5,148.6 1048.3,237.2 "/> <polygon class="st33" points="1262.4,237.2 1287.9,148.6 1343.1,237.2 "/> <polygon class="st34" points="1103.5,148.6 1129,237.2 1195.7,148.6 "/> <polygon class="st35" points="1287.9,148.6 1262.4,237.2 1195.7,148.6 "/> <polygon class="st36" points="1338.7,201.3 1287.9,171.9 1253.2,217.3 1280.4,166.5 1237.2,131.7 1287.9,158.6 1322.7,115.7 1294.4,165.1 "/> <polygon class="st36" points="1170.9,265.2 1139.4,247 1117.9,275.2 1134.8,243.7 1108,222.1 1139.4,238.8 1161,212.2 1143.4,242.8 "/> <polygon class="st36" points="1268.6,340.9 1237.2,322.6 1215.6,350.8 1232.5,319.3 1205.7,297.8 1237.2,314.4 1258.7,287.8 1241.1,318.4 "/> </g> </g> </svg>