<?xml version="1.0" encoding="UTF-8"?>
<svg viewBox="0 0 531.91351 175.47475" xmlns="http://www.w3.org/2000/svg" xmlns:xlink="http://www.w3.org/1999/xlink">
 <defs>
  <filter id="b"/>
  <filter id="h" x="-.10542" y="-.13704" width="1.2108" height="1.2741">
   <feGaussianBlur stdDeviation=".9993"/>
  </filter>
  <filter id="g" x="-.1863" y="-.1863" width="1.3726" height="1.3726"/>
  <linearGradient id="a">
   <stop stop-color="#6a6a6a" offset="0"/>
   <stop offset=".5"/>
   <stop stop-color="#141414" offset="1"/>
  </linearGradient>
  <linearGradient id="n">
   <stop stop-color="#6a6a6a" offset="0"/>
   <stop offset=".7"/>
   <stop stop-color="#141414" offset="1"/>
  </linearGradient>
  <linearGradient id="y" x1="-39.742" x2="492.09" gradientUnits="userSpaceOnUse">
   <stop stop-color="#aaa" offset="0"/>
   <stop stop-color="#aaa" stop-opacity="0" offset="1"/>
  </linearGradient>
  <linearGradient id="c" x2="0" y1="38.864" y2="28.136" gradientUnits="userSpaceOnUse">
   <stop offset="0"/>
   <stop stop-color="#181818" offset=".8871"/>
   <stop stop-color="#777" offset="1"/>
  </linearGradient>
  <linearGradient id="l" x1="62.629" x2="70.521" gradientUnits="userSpaceOnUse" xlink:href="#a"/>
  <linearGradient id="q" x1="-29.348" x2="4.1623" y1="119.82" y2="142.86" gradientUnits="userSpaceOnUse" xlink:href="#a"/>
  <linearGradient id="f" x1="253.63" x2="252.44" y1="64.583" y2="67.39" gradientUnits="userSpaceOnUse" xlink:href="#a"/>
  <linearGradient id="e" x1="251.95" x2="252.83" y1="69.585" y2="66.636" gradientUnits="userSpaceOnUse" xlink:href="#a"/>
  <linearGradient id="ab" x1="473.61" x2="476.02" y1="205.47" y2="203.07" gradientUnits="userSpaceOnUse" xlink:href="#a" spreadMethod="repeat"/>
  <linearGradient id="aa" x2="0" y1="129.68" y2="107.63" gradientUnits="userSpaceOnUse" xlink:href="#n"/>
  <linearGradient id="k" x1="240.42" x2="242.72" y1="68.024" y2="64.439" gradientTransform="matrix(.42428 .57421 -.6635 .36718 167.65 -44.228)" gradientUnits="userSpaceOnUse" xlink:href="#a" spreadMethod="repeat"/>
  <linearGradient id="z" x1="262.26" x2="491.09" y1="-32.898" y2="80.102" gradientUnits="userSpaceOnUse" xlink:href="#a" spreadMethod="reflect"/>
  <linearGradient id="m" x1="40.557" x2="40.787" y1="72.436" y2="72.52" gradientTransform="matrix(-2.2142 0 0 2.2142 584.95 -80.849)" gradientUnits="userSpaceOnUse" xlink:href="#a" spreadMethod="repeat"/>
  <linearGradient id="x" x2="0" y1="31.676" y2="9.626" gradientUnits="userSpaceOnUse" xlink:href="#n"/>
  <linearGradient id="w" x1="-.81202" x2="-.45847" y1="30.982" y2="47.171" gradientTransform="matrix(.94723 0 0 1.4224 156.46 54.019)" gradientUnits="userSpaceOnUse" xlink:href="#a"/>
  <linearGradient id="v" x1="-.81202" x2="-.45847" y1="30.982" y2="47.171" gradientTransform="matrix(.94723 0 0 1.4224 194.76 54.019)" gradientUnits="userSpaceOnUse" xlink:href="#a"/>
  <linearGradient id="u" x1="-.81202" x2="-.45847" y1="30.982" y2="47.171" gradientTransform="matrix(.94723 0 0 1.4224 79.874 54.019)" gradientUnits="userSpaceOnUse" xlink:href="#a"/>
  <linearGradient id="t" x1="-.81202" x2="-.45847" y1="30.982" y2="47.171" gradientTransform="matrix(.94723 0 0 1.4224 233.05 54.019)" gradientUnits="userSpaceOnUse" xlink:href="#a"/>
  <linearGradient id="s" x1="-.81202" x2="-.45847" y1="30.982" y2="47.171" gradientTransform="matrix(.94723 0 0 1.4224 3.2833 54.019)" gradientUnits="userSpaceOnUse" xlink:href="#a"/>
  <linearGradient id="r" x1="-.81202" x2="-.45847" y1="30.982" y2="47.171" gradientTransform="matrix(.94723 0 0 1.4224 118.17 54.019)" gradientUnits="userSpaceOnUse" xlink:href="#a"/>
  <radialGradient id="d" cx="239.89" cy="65.297" r="14.395" gradientTransform="matrix(-2.6198 .70196 .72921 2.7214 831.66 -277.46)" gradientUnits="userSpaceOnUse" xlink:href="#a" spreadMethod="reflect"/>
  <radialGradient id="p" cx="225.12" cy="73.164" r="14.395" gradientTransform="matrix(5.5069 -3.7442 -2.6774 -3.9378 -632.49 1200.4)" gradientUnits="userSpaceOnUse" xlink:href="#a" spreadMethod="reflect"/>
  <radialGradient id="o" cx="241.55" cy="61.328" r="14.395" gradientTransform="matrix(18.872 -1.825 -.31504 -3.2578 -4140.3 699.72)" gradientUnits="userSpaceOnUse" xlink:href="#a" spreadMethod="reflect"/>
  <radialGradient id="j" cx="241.55" cy="61.328" r="14.395" gradientTransform="matrix(-.24469 3.4569 1.1619 .06309 212.86 -723.02)" gradientUnits="userSpaceOnUse" xlink:href="#a" spreadMethod="reflect"/>
  <radialGradient id="i" cx="225.12" cy="73.164" r="14.395" gradientTransform="matrix(1.9587 -1.3317 -.95228 -1.4006 -152.13 523.28)" gradientUnits="userSpaceOnUse" xlink:href="#a" spreadMethod="reflect"/>
 </defs>
 <g transform="translate(39.785 23.694)">
  <path d="m-38.742 8.9308h529.83l-13.285 142.34h-503.26z" fill="#aaa" stroke="#000" stroke-linecap="round" stroke-linejoin="round" stroke-width="2"/>
  <path d="m491.09 8.9308h-529.83l13.285 142.34h503.26z" fill="url(#m)" opacity=".4" stroke="#808080"/>
  <path d="m491.09 8.9308h-529.83l13.285 142.34h503.26z" fill="url(#z)" opacity=".6047" stroke="#000"/>
  <path d="m-18.238 119.28h488.82v5.4766h-488.82z" fill="#4d4d4d" stroke="url(#aa)" stroke-linecap="round" stroke-linejoin="round" stroke-width="3.3782"/>
  <path transform="matrix(-.94723 0 0 1.7455 118.17 42.523)" d="m-16.335 32.374h32.384v6.4254h-32.384z" fill="url(#c)" filter="url(#b)"/>
  <path d="m103.39 99.188h29.838v8.8902h-29.838z" fill="url(#r)"/>
  <path transform="matrix(-.94723 0 0 1.7455 3.2833 42.523)" d="m-16.335 32.374h32.384v6.4254h-32.384z" fill="url(#c)" filter="url(#b)"/>
  <path d="m-11.5 99.188h29.838v8.8902h-29.838z" fill="url(#s)"/>
  <path transform="matrix(-.94723 0 0 1.7455 233.05 42.523)" d="m-16.335 32.374h32.384v6.4254h-32.384z" fill="url(#c)" filter="url(#b)"/>
  <path d="m218.27 99.188h29.838v8.8902h-29.838z" fill="url(#t)"/>
  <path transform="matrix(-.94723 0 0 1.7455 79.874 42.523)" d="m-16.335 32.374h32.384v6.4254h-32.384z" fill="url(#c)" filter="url(#b)"/>
  <path d="m65.091 99.188h29.838v8.8902h-29.838z" fill="url(#u)"/>
  <path transform="matrix(-.94723 0 0 1.7455 194.76 42.523)" d="m-16.335 32.374h32.384v6.4254h-32.384z" fill="url(#c)" filter="url(#b)"/>
  <path d="m179.98 99.188h29.838v8.8902h-29.838z" fill="url(#v)"/>
  <path transform="matrix(-.94723 0 0 1.7455 156.46 42.523)" d="m-16.335 32.374h32.384v6.4254h-32.384z" fill="url(#c)" filter="url(#b)"/>
  <path d="m141.68 99.188h29.838v8.8902h-29.838z" fill="url(#w)"/>
  <g transform="matrix(2.2142 0 0 2.2142 -133.1 1.6514)" fill="url(#m)" opacity=".4" stroke="#808080" stroke-width=".45163">
   <path d="m281.9 3.2876h-239.29l46-14.286h147.29z" opacity=".4"/>
   <path d="m281.9 3.2876h-239.29l46-14.286h147.29z" opacity=".6047"/>
  </g>
  <path d="m-38.742 8.9308h529.83l-101.85-31.632h-326.12z" fill="url(#y)" opacity=".4516" stroke="#1a1a1a" stroke-linecap="round" stroke-linejoin="round" stroke-width="2"/>
  <path transform="matrix(-2.0016 0 0 -2.0016 147.24 336.96)" d="m70.521 99.567c0 2.1793-1.7666 3.9459-3.9459 3.9459s-3.9459-1.7666-3.9459-3.9459 1.7666-3.9459 3.9459-3.9459 3.9459 1.7666 3.9459 3.9459z" fill="url(#l)"/>
  <path transform="matrix(1.7134 0 0 -1.7134 -100.1 308.26)" d="m70.521 99.567c0 2.1793-1.7666 3.9459-3.9459 3.9459s-3.9459-1.7666-3.9459-3.9459 1.7666-3.9459 3.9459-3.9459 3.9459 1.7666 3.9459 3.9459z" fill="url(#l)"/>
  <path transform="matrix(-1.3932 0 0 1.3932 106.73 -1.0542)" d="m70.521 99.567c0 2.1793-1.7666 3.9459-3.9459 3.9459s-3.9459-1.7666-3.9459-3.9459 1.7666-3.9459 3.9459-3.9459 3.9459 1.7666 3.9459 3.9459z"/>
  <path d="m-3.0563 132.4c-3.2978 0-5.9413 2.6757-5.9413 5.9736 0 0.32549 0.01727 0.65767 0.06459 0.96868-0.09499 0.30691-0.12913 0.64678-0.12913 1.001 0 1.4168 0.77891 2.5832 2.1957 2.5832s1.0333-1.1664 1.0333-2.5832 0.3835-2.5509-1.0333-2.5509c-0.65261 0-1.1822 0.24442-1.5499 0.64579-2.9e-4 -0.0219 0-0.0427 0-0.0646 0-2.9596 2.4004-5.36 5.36-5.36s5.36 2.4004 5.36 5.36c-0.36278-0.36129-0.86988-0.58121-1.4853-0.58121-1.4168 0-1.0333 1.1341-1.0333 2.5509s-0.3835 2.5832 1.0333 2.5832 2.1957-1.1664 2.1957-2.5832c0-0.38183-0.05124-0.73992-0.16146-1.0656 0.04869-0.29097 0.09687-0.59879 0.09687-0.9041 0-3.2978-2.708-5.9736-6.0058-5.9736z" fill="url(#q)" opacity=".98"/>
  <path transform="matrix(2.4089 0 0 3.5111 -175.43 -228.37)" d="m257 95.612c0 4.8325-5.0928 8.75-11.375 8.75s-11.375-3.9175-11.375-8.75 5.0928-8.75 11.375-8.75 11.375 3.9175 11.375 8.75z" filter="url(#h)" opacity=".98"/>
  <path d="m414 48.117c-19.335 0-34.965 15.372-34.965 34.308 0 18.673 15.21 33.824 34.173 34.243-16.476-1.7751-29.291-15.438-29.291-32.046 0-17.815 14.73-32.24 32.92-32.24 14.383 0 26.583 9.0576 31.072 21.644-3.8285-14.87-17.537-25.909-33.909-25.909z" fill="#1a1a1a"/>
  <path transform="matrix(2.9025 0 0 2.9025 -300.09 -137.52)" d="m246.14 63.984c-6.6422 0-12.031 5.276-12.031 11.781 0 2.2744 0.67264 4.3879 1.8125 6.1875-1.1021-1.7785-1.7188-3.8605-1.7188-6.0938 0-6.5052 5.389-11.781 12.031-11.781 2.5941 0 4.9755 0.78576 6.9375 2.1562-1.9752-1.4014-4.4052-2.25-7.0312-2.25z" filter="url(#b)"/>
  <path d="m381.17 84.755c0 19.236 21.399 39.751 40.635 39.751s34.83-14.71 34.83-33.946-21.399-40.635-40.635-40.635-34.83 15.594-34.83 34.83z" fill="url(#o)"/>
  <path transform="translate(-73.857 -135.7)" d="m489.84 185.62c-19.236 0-34.812 15.577-34.812 34.812s21.389 39.281 40.625 39.281 34.844-14.233 34.844-33.469-21.42-40.625-40.656-40.625z" fill="url(#ab)" opacity=".414"/>
  <path d="m388.58 90.87c0 18.799 15.24 34.039 34.039 34.039s34.039-15.24 34.039-34.039-15.24-34.039-34.039-34.039-34.039 15.24-34.039 34.039z" fill="url(#p)"/>
  <path transform="matrix(2.2142 0 0 2.2142 -132.74 -63.588)" d="m236.2 69.758c0 8.069 6.5412 14.61 14.61 14.61s14.61-6.5412 14.61-14.61-6.5412-14.61-14.61-14.61-14.61 6.5412-14.61 14.61z" fill="url(#d)" filter="url(#b)"/>
  <path transform="matrix(-2.9393 0 0 2.9393 1172.3 -130.3)" d="m253.5,67.23718c0,.62132-.50368,1.125-1.125,1.125s-1.125-.50368-1.125-1.125 .50368-1.125 1.125-1.125 1.125.50368 1.125,1.125z" fill="url(#f)" filter="url(#g)" opacity=".98"/>
  <path transform="matrix(-2.4608 0 0 2.4608 1051.5 -98.127)" d="m253.5,67.23718c0,.62132-.50368,1.125-1.125,1.125s-1.125-.50368-1.125-1.125 .50368-1.125 1.125-1.125 1.125.50368 1.125,1.125z" fill="url(#e)" filter="url(#b)" opacity=".98"/>
  <g transform="matrix(1 0 -2.0955 1 -25.773 1)" fill="none" stroke="#000" stroke-linecap="round" stroke-linejoin="round">
   <path d="m89.912-12.546h29.659"/>
   <path d="m89.912-8.5454h32.189"/>
   <path d="m89.912-0.54503h35.25"/>
   <path d="m89.912-10.546h30.952"/>
   <path d="m89.912-14.546h27.305"/>
   <path d="m89.912-4.5452h33.604"/>
   <path d="m89.912-6.5453h32.896"/>
   <path d="m89.912-2.5451h33.604"/>
  </g>
  <g transform="translate(117.5 -24)">
   <path transform="matrix(.85679 0 0 1.2488 11.32 13.784)" d="m257 95.612c0 4.8325-5.0928 8.75-11.375 8.75s-11.375-3.9175-11.375-8.75 5.0928-8.75 11.375-8.75 11.375 3.9175 11.375 8.75z" filter="url(#h)" opacity=".98"/>
   <path d="m233.69 116.75c-3.7049-5.7938-11.306-7.5318-16.98-3.9033-5.5953 3.578-7.2212 11.039-3.713 16.802-2.6252-5.2772-0.98674-11.735 3.9902-14.918 5.3382-3.4135 12.483-1.7639 15.969 3.6867 2.756 4.3099 2.3796 9.7014-0.53185 13.458 3.7223-3.9966 4.4033-10.219 1.2661-15.125z" fill="#888"/>
   <path d="m214.02 113.7c-4.6137 4.4249-3.6883 17.996 1.3639 22.037s12.676 3.9329 17.29-0.49201 3.9003-18.199-1.1519-22.24-12.888-3.7296-17.502 0.69533z" fill="url(#j)"/>
   <path d="m216.25 112.16c-5.7641 3.1899-7.4398 16.366-3.7539 21.354s10.936 6.6736 16.7 3.4837 7.8504-16.593 4.1644-21.581-11.347-6.4464-17.111-3.2566z" fill="url(#k)" opacity=".414"/>
   <path d="m211.04 128.65c0 6.6865 5.4205 12.107 12.107 12.107s12.107-5.4205 12.107-12.107-5.4205-12.107-12.107-12.107-12.107 5.4205-12.107 12.107z" fill="url(#i)"/>
   <path transform="matrix(.78756 0 0 .78756 25.616 73.716)" d="m236.2 69.758c0 8.069 6.5412 14.61 14.61 14.61s14.61-6.5412 14.61-14.61-6.5412-14.61-14.61-14.61-14.61 6.5412-14.61 14.61z" fill="url(#d)" filter="url(#b)"/>
   <path transform="matrix(-1.0455 0 0 1.0455 487 49.275)" d="m253.5,67.23718c0,.62132-.50368,1.125-1.125,1.125s-1.125-.50368-1.125-1.125 .50368-1.125 1.125-1.125 1.125.50368 1.125,1.125z" fill="url(#f)" filter="url(#g)" opacity=".98"/>
   <path transform="matrix(-.87525 0 0 .87525 444.04 60.72)" d="m253.5,67.23718c0,.62132-.50368,1.125-1.125,1.125s-1.125-.50368-1.125-1.125 .50368-1.125 1.125-1.125 1.125.50368 1.125,1.125z" fill="url(#e)" filter="url(#b)" opacity=".98"/>
  </g>
  <g transform="translate(56,-24)">
   <path transform="matrix(.85679 0 0 1.2488 11.32 13.784)" d="m257 95.612c0 4.8325-5.0928 8.75-11.375 8.75s-11.375-3.9175-11.375-8.75 5.0928-8.75 11.375-8.75 11.375 3.9175 11.375 8.75z" filter="url(#h)" opacity=".98"/>
   <path d="m233.69 116.75c-3.7049-5.7938-11.306-7.5318-16.98-3.9033-5.5953 3.578-7.2212 11.039-3.713 16.802-2.6252-5.2772-0.98674-11.735 3.9902-14.918 5.3382-3.4135 12.483-1.7639 15.969 3.6867 2.756 4.3099 2.3796 9.7014-0.53185 13.458 3.7223-3.9966 4.4033-10.219 1.2661-15.125z" fill="#888"/>
   <path d="m214.02 113.7c-4.6137 4.4249-3.6883 17.996 1.3639 22.037s12.676 3.9329 17.29-0.49201 3.9003-18.199-1.1519-22.24-12.888-3.7296-17.502 0.69533z" fill="url(#j)"/>
   <path d="m216.25 112.16c-5.7641 3.1899-7.4398 16.366-3.7539 21.354s10.936 6.6736 16.7 3.4837 7.8504-16.593 4.1644-21.581-11.347-6.4464-17.111-3.2566z" fill="url(#k)" opacity=".414"/>
   <path d="m211.04 128.65c0 6.6865 5.4205 12.107 12.107 12.107s12.107-5.4205 12.107-12.107-5.4205-12.107-12.107-12.107-12.107 5.4205-12.107 12.107z" fill="url(#i)"/>
   <path transform="matrix(.78756 0 0 .78756 25.616 73.716)" d="m236.2 69.758c0 8.069 6.5412 14.61 14.61 14.61s14.61-6.5412 14.61-14.61-6.5412-14.61-14.61-14.61-14.61 6.5412-14.61 14.61z" fill="url(#d)" filter="url(#b)"/>
   <path transform="matrix(-1.0455 0 0 1.0455 487 49.275)" d="m253.5,67.23718c0,.62132-.50368,1.125-1.125,1.125s-1.125-.50368-1.125-1.125 .50368-1.125 1.125-1.125 1.125.50368 1.125,1.125z" fill="url(#f)" filter="url(#g)" opacity=".98"/>
   <path transform="matrix(-.87525 0 0 .87525 444.04 60.72)" d="m253.5,67.23718c0,.62132-.50368,1.125-1.125,1.125s-1.125-.50368-1.125-1.125 .50368-1.125 1.125-1.125 1.125.50368 1.125,1.125z" fill="url(#e)" filter="url(#b)" opacity=".98"/>
  </g>
  <g transform="translate(86.75,-24)">
   <path transform="matrix(.85679 0 0 1.2488 11.32 13.784)" d="m257 95.612c0 4.8325-5.0928 8.75-11.375 8.75s-11.375-3.9175-11.375-8.75 5.0928-8.75 11.375-8.75 11.375 3.9175 11.375 8.75z" filter="url(#h)" opacity=".98"/>
   <path d="m233.69 116.75c-3.7049-5.7938-11.306-7.5318-16.98-3.9033-5.5953 3.578-7.2212 11.039-3.713 16.802-2.6252-5.2772-0.98674-11.735 3.9902-14.918 5.3382-3.4135 12.483-1.7639 15.969 3.6867 2.756 4.3099 2.3796 9.7014-0.53185 13.458 3.7223-3.9966 4.4033-10.219 1.2661-15.125z" fill="#888"/>
   <path d="m214.02 113.7c-4.6137 4.4249-3.6883 17.996 1.3639 22.037s12.676 3.9329 17.29-0.49201 3.9003-18.199-1.1519-22.24-12.888-3.7296-17.502 0.69533z" fill="url(#j)"/>
   <path d="m216.25 112.16c-5.7641 3.1899-7.4398 16.366-3.7539 21.354s10.936 6.6736 16.7 3.4837 7.8504-16.593 4.1644-21.581-11.347-6.4464-17.111-3.2566z" fill="url(#k)" opacity=".414"/>
   <path d="m211.04 128.65c0 6.6865 5.4205 12.107 12.107 12.107s12.107-5.4205 12.107-12.107-5.4205-12.107-12.107-12.107-12.107 5.4205-12.107 12.107z" fill="url(#i)"/>
   <path transform="matrix(.78756 0 0 .78756 25.616 73.716)" d="m236.2 69.758c0 8.069 6.5412 14.61 14.61 14.61s14.61-6.5412 14.61-14.61-6.5412-14.61-14.61-14.61-14.61 6.5412-14.61 14.61z" fill="url(#d)" filter="url(#b)"/>
   <path transform="matrix(-1.0455 0 0 1.0455 487 49.275)" d="m253.5,67.23718c0,.62132-.50368,1.125-1.125,1.125s-1.125-.50368-1.125-1.125 .50368-1.125 1.125-1.125 1.125.50368 1.125,1.125z" fill="url(#f)" filter="url(#g)" opacity=".98"/>
   <path transform="matrix(-.87525 0 0 .87525 444.04 60.72)" d="m253.5,67.23718c0,.62132-.50368,1.125-1.125,1.125s-1.125-.50368-1.125-1.125 .50368-1.125 1.125-1.125 1.125.50368 1.125,1.125z" fill="url(#e)" filter="url(#b)" opacity=".98"/>
  </g>
  <g transform="matrix(1 0 -1.7429 1 27.458 1)" fill="none" stroke="#000" stroke-linecap="round" stroke-linejoin="round">
   <path d="m89.912-12.546h29.659"/>
   <path d="m89.912-8.5454h32.189"/>
   <path d="m89.912-0.54503h35.25"/>
   <path d="m89.912-10.546h30.952"/>
   <path d="m89.912-14.546h27.305"/>
   <path d="m89.912-4.5452h33.604"/>
   <path d="m89.912-6.5453h32.896"/>
   <path d="m89.912-2.5451h33.604"/>
  </g>
  <g transform="matrix(1 0 -.6849 1 82.37 1)" fill="none" stroke="#000" stroke-linecap="round" stroke-linejoin="round">
   <path d="m89.912-12.546h29.659"/>
   <path d="m89.912-8.5454h32.189"/>
   <path d="m89.912-0.54503h35.25"/>
   <path d="m89.912-10.546h30.952"/>
   <path d="m89.912-14.546h27.305"/>
   <path d="m89.912-4.5452h33.604"/>
   <path d="m89.912-6.5453h32.896"/>
   <path d="m89.912-2.5451h33.604"/>
  </g>
  <path d="m-18.238 21.278h488.82v5.4766h-488.82z" fill="#4d4d4d" stroke="url(#x)" stroke-linecap="round" stroke-linejoin="round" stroke-width="3.3782"/>
  <g transform="matrix(1 0 0 .44324 0 51.513)" stroke="#4d4d4d" stroke-width="2">
   <path d="m103.39 83.632h29.838v8.8902h-29.838z" fill="#71c837"/>
   <path d="m-11.5 83.632h29.838v8.8902h-29.838z" fill="#71c837"/>
   <path d="m218.27 83.632h29.838v8.8902h-29.838z" fill="#808080"/>
   <path d="m65.091 83.632h29.838v8.8902h-29.838z" fill="#808080"/>
   <path d="m179.98 83.632h29.838v8.8902h-29.838z" fill="#808080"/>
   <path d="m141.68 83.632h29.838v8.8902h-29.838z" fill="#808080"/>
  </g>
  <g transform="translate(1.7537)" font-family="URW Palladio L" font-size="7.2162" font-weight="500" letter-spacing="0" word-spacing="0">
   <path d="m-11.62181,80.66934c-1e-006-.85739.2302-1.52803.69061-2.01194 .46041-.48624 1.05471-.72937 1.78291-.72937 .47685,5e-006 .90672.11393 1.28961.34178s.67416.54615.87384.95488 .30302.86797.30302,1.38475-.10571.99246-.31712,1.40589-.51092.72702-.8985.94078-.80572.31712-1.25438.31712c-.48625,0-.92082-.11745-1.30371-.35235s-.673-.55554-.87031-.96193-.29598-.83625-.29598-1.28961m.70471.01057c-1e-006,.62249.16678,1.11344.50034,1.47284 .33591.35705.75638.53558 1.26142.53558s.93726-.18087 1.26847-.54262 .50034-.87501.50034-1.53978c-4.6e-006-.42047-.07165-.78692-.21494-1.09934s-.34883-.55789-.62367-.72937-.57904-.26074-.91964-.26074c-.4839,5e-006-.90085.16678-1.25085.50034s-.52148.88558-.52148,1.66311"/>
   <path d="m-5.8115 83.185v-5.1655h0.70118l2.7131 4.0556v-4.0556h0.65538v5.1655h-0.70118l-2.7131-4.0591v4.0591h-0.65538"/>
   <path d="m-1.1464 83.273 1.4975-5.3417h0.50739l-1.494 5.3417h-0.51091"/>
   <path d="m1.20385,80.66934c-3e-007-.85739.2302-1.52803.69061-2.01194 .46041-.48624 1.05471-.72937 1.78291-.72937 .47685,5e-006 .90672.11393 1.28961.34178s.67416.54615.87384.95488 .30302.86797.30302,1.38475-.10571.99246-.31712,1.40589-.51092.72702-.8985.94078-.80572.31712-1.25438.31712c-.48625,0-.92082-.11745-1.30371-.35235s-.673-.55554-.87031-.96193-.29598-.83625-.29598-1.28961m.70471.01057c-1e-006,.62249.16678,1.11344.50034,1.47284 .33591.35705.75638.53558 1.26142.53558s.93726-.18087 1.26847-.54262 .50034-.87501.50034-1.53978c-4.5e-006-.42047-.07165-.78692-.21494-1.09934s-.34883-.55789-.62367-.72937-.57904-.26074-.91964-.26074c-.4839,5e-006-.90085.16678-1.25085.50034s-.52148.88558-.52148,1.66311"/>
   <path d="m7.0564 83.185v-5.1655h3.4848v0.60957h-2.8012v1.5997h2.4242v0.60957h-2.4242v2.3467h-0.68357"/>
   <path d="m11.468 83.185v-5.1655h3.4848v0.60957h-2.8012v1.5997h2.4242v0.60957h-2.4242v2.3467h-0.68356"/>
  </g>
  <g transform="translate(53.718)" font-family="URW Palladio L" font-size="7.2162" font-weight="500" letter-spacing="0" word-spacing="0">
   <path d="m18.88493,83.18514 1.98375-5.1655h.73642l2.11412,5.1655h-.7787l-.60252-1.56445h-2.15992l-.56729,1.56445h-.72585m1.49046-2.12117h1.7512l-.5391-1.43055c-.16443-.43456-.28658-.79162-.36645-1.07115-.06578.33122-.15856.66008-.27836.98659l-.56729,1.51512"/>
   <path d="m27.66205,78.01964h.68356v2.98443c-4e-006,.51914-.05873.93139-.17618,1.23676s-.33004.55437-.63776.74699-.70706.28541-1.20505.28541c-.4839,0-.87971-.08339-1.18743-.25017s-.52736-.40756-.6589-.72232c-.13155-.31712-.19732-.74934-.19732-1.29666v-2.98443h.68356v2.98091c-1e-006,.44866.04111.77988.12332.99364s.22785.37467.42987.48977 .45336.17265.74699.17265c.50269,0 .86091-.11393 1.07468-.34178s.32064-.66595.32064-1.31428v-2.98091"/>
   <path d="m28.96224,83.18514 1.99784-2.69198-1.76177-2.47352h.81394l.93726,1.32485c.19497.27484.33356.48625.41578.63424 .1151-.18792.25134-.38406.40873-.58843l1.03944-1.37065h.74347l-1.81462,2.43476 1.95556,2.73074h-.84565l-1.30018-1.84281c-.07282-.1057-.14799-.22081-.22551-.34531-.1151.18792-.19732.31712-.24665.38759l-1.29666,1.80053h-.82098"/>
  </g>
  <g transform="translate(74.181)" font-family="URW Palladio L" font-size="7.2162" font-weight="500" letter-spacing="0" word-spacing="0">
   <path d="m35.34687,83.18514 1.98375-5.1655h.73642l2.11412,5.1655h-.7787l-.60252-1.56445h-2.15992l-.56729,1.56445h-.72585m1.49045-2.12117h1.7512l-.5391-1.43055c-.16443-.43456-.28658-.79162-.36645-1.07115-.06578.33122-.15856.66008-.27836.98659l-.56729,1.51512"/>
   <path d="m44.124,78.01964h.68357v2.98443c-5e-006,.51914-.05873.93139-.17618,1.23676s-.33004.55437-.63776.74699-.70706.28541-1.20505.28541c-.4839,0-.87971-.08339-1.18743-.25017s-.52736-.40756-.6589-.72232c-.13155-.31712-.19732-.74934-.19732-1.29666v-2.98443h.68356v2.98091c-1e-006,.44866.04111.77988.12332.99364s.22785.37467.42987.48977 .45336.17265.74699.17265c.50269,0 .86091-.11393 1.07468-.34178s.32064-.66595.32064-1.31428v-2.98091"/>
   <path d="m45.42418,83.18514 1.99784-2.69198-1.76177-2.47352h.81394l.93726,1.32485c.19497.27484.33356.48625.41578.63424 .1151-.18792.25134-.38406.40873-.58843l1.03944-1.37065h.74347l-1.81462,2.43476 1.95556,2.73074h-.84565l-1.30018-1.84281c-.07282-.1057-.14799-.22081-.22551-.34531-.11511.18792-.19732.31712-.24665.38759l-1.29666,1.80053h-.82098"/>
   <path d="m52.90111,83.18514h-.63424v-4.04149c-.15269.14564-.35353.29128-.60252.43692s-.46863.25487-.66595.32769v-.61309c.3547-.16678.66477-.36879.93021-.60605s.45336-.46745.56376-.69061h.40873v5.18664"/>
  </g>
  <g transform="translate(91.525)" font-family="URW Palladio L" font-size="7.2162" font-weight="500" letter-spacing="0" word-spacing="0">
   <path d="m55.82565,83.18514 1.98375-5.1655h.73642l2.11412,5.1655h-.7787l-.60252-1.56445h-2.15992l-.56729,1.56445h-.72585m1.49045-2.12117h1.7512l-.5391-1.43055c-.16443-.43456-.28658-.79162-.36645-1.07115-.06578.33122-.15856.66008-.27836.98659l-.56729,1.51512"/>
   <path d="m64.60277,78.01964h.68356v2.98443c-5e-006,.51914-.05873.93139-.17618,1.23676s-.33004.55437-.63776.74699-.70706.28541-1.20505.28541c-.4839,0-.87971-.08339-1.18743-.25017s-.52736-.40756-.6589-.72232c-.13155-.31712-.19732-.74934-.19732-1.29666v-2.98443h.68356v2.98091c-1e-006,.44866.04111.77988.12332.99364s.22785.37467.42987.48977 .45336.17265.74699.17265c.50269,0 .86091-.11393 1.07468-.34178s.32064-.66595.32064-1.31428v-2.98091"/>
   <path d="m65.90295,83.18514 1.99784-2.69198-1.76177-2.47352h.81394l.93726,1.32485c.19497.27484.33356.48625.41578.63424 .1151-.18792.25134-.38406.40873-.58843l1.03944-1.37065h.74347l-1.81462,2.43476 1.95556,2.73074h-.84565l-1.30018-1.84281c-.07282-.1057-.14799-.22081-.22551-.34531-.11511.18792-.19732.31712-.24665.38759l-1.29666,1.80053h-.82098"/>
   <path d="m74.32419,82.57557v.60957h-3.4143c-.0047-.15269.01997-.2995.07399-.44044 .08691-.23255.22551-.46158.41578-.68709s.4698-.48625.83155-.78222c.56141-.46041.94078-.8245 1.1381-1.0923s.29597-.525.29598-.76461c-3e-006-.25134-.09044-.46275-.27131-.63424s-.41226-.26074-.70118-.26074c-.30538,5e-006-.54967.09162-.73289.27484s-.27601.43692-.27836.76108l-.65185-.06695c.04463-.48624.21259-.85621.50387-1.10991 .29128-.25604.68239-.38406 1.17334-.38406 .49564,5e-006 .88793.13742 1.17686.41225s.43339.61545.43339,1.02182c-4e-006,.20672-.04229.40991-.12685.60957s-.22551.40991-.42282.63071c-.19497.22081-.52031.52383-.97602.90907-.38054.31947-.62484.53675-.73289.65185-.10806.11275-.19732.22668-.26779.34178h2.53342"/>
  </g>
  <g transform="translate(104.36)" font-family="URW Palladio L" font-size="7.2162" font-weight="500" letter-spacing="0" word-spacing="0">
   <path d="m80.95196,81.37405 .68357.17265c-.1433.56142-.40169.99011-.77518,1.28609-.37115.29363-.82569.44044-1.36361.44044-.55672,0-1.01008-.11275-1.36008-.33826s-.6131-.55672-.79632-.98659-.27131-.89145-.27131-1.38475c-1e-006-.53792.10218-1.00655.30655-1.40589 .20671-.40168.49917-.70588.87736-.9126s.79866-.31359 1.25438-.31359c.51678,5e-006 .95135.13155 1.30371.39464s.59782.63307.73642,1.10991l-.67299.15856c-.1198-.37584-.29363-.6495-.52148-.82098s-.51444-.25721-.85974-.25722c-.39699,5e-006-.72937.09514-.99716.28541s-.45219.44632-.56024.76813-.16208.64951-.16208.99011c-1e-006,.43927.06342.82333.19027,1.1522s.32886.57081.599.73289 .56259.24312.87736.24312c.38289,1e-006 .70705-.1104.9725-.33121s.44514-.54849.5391-.98306"/>
   <path d="m82.48117,83.18514v-5.1655h1.77938c.40168,5e-006 .70823.02467.91964.07399 .29597.06813.54849.19145.75756.36997 .27248.23021.47567.52501.60957.88441 .13624.35705.20436.76578.20436,1.22619-5e-006,.39229-.04581.73994-.13742,1.04297s-.20907.55437-.35235.75404-.30068.35353-.47215.46863c-.16913.11275-.37467.19849-.61662.25722s-.51561.08809-.82803.08809h-1.86395m.68356-.60957h1.10287c.3406,1e-006 .60722-.03171.79984-.09513s.35-.15269.46511-.26779c.16208-.16208.28775-.37937.37702-.65185s.13741-.60722.13742-.99716c-4e-006-.54027-.08927-.95487-.26779-1.24381s-.39111-.48624-.64481-.58491c-.18323-.07047-.47803-.1057-.88441-.10571h-1.08525v3.94636"/>
   <path d="m87.139 83.273 1.4975-5.3417h0.50739l-1.494 5.3417h-0.51091"/>
   <path d="m89.69737,83.18514v-5.1655h1.77938c.40168,5e-006 .70823.02467.91964.07399 .29597.06813.54849.19145.75756.36997 .27248.23021.47567.52501.60957.88441 .13624.35705.20436.76578.20436,1.22619-4e-006,.39229-.04581.73994-.13742,1.04297s-.20907.55437-.35235.75404-.30068.35353-.47215.46863c-.16913.11275-.37467.19849-.61662.25722s-.51561.08809-.82803.08809h-1.86395m.68356-.60957h1.10287c.3406,1e-006 .60722-.03171.79984-.09513s.35-.15269.46511-.26779c.16208-.16208.28775-.37937.37702-.65185s.13741-.60722.13742-.99716c-4e-006-.54027-.08927-.95487-.26779-1.24381s-.39111-.48624-.64481-.58491c-.18323-.07047-.47803-.1057-.88441-.10571h-1.08525v3.94636"/>
   <path d="m96.38856,83.18514-2.00137-5.1655h.73994l1.34247,3.75256c.10805.30068.19849.58256.27131.84565 .07986-.28188.17265-.56376.27836-.84565l1.39532-3.75256h.69766l-2.02251,5.1655h-.70118"/>
   <path d="m99.73239,83.18514v-5.1655h1.77938c.40168,5e-006 .70823.02467.91964.07399 .29598.06813.54849.19145.75756.36997 .27248.23021.47567.52501.60957.88441 .13624.35705.20436.76578.20437,1.22619-1e-005,.39229-.0458.73994-.13742,1.04297s-.20907.55437-.35235.75404-.30068.35353-.47216.46863c-.16913.11275-.37467.19849-.61662.25722s-.51561.08809-.82803.08809h-1.86394m.68356-.60957h1.10287c.3406,1e-006 .60722-.03171.79984-.09513s.35-.15269.46511-.26779c.16207-.16208.28775-.37937.37701-.65185s.13742-.60722.13742-.99716c0-.54027-.0893-.95487-.26779-1.24381s-.39111-.48624-.6448-.58491c-.18323-.07047-.47803-.1057-.88441-.10571h-1.08525v3.94636"/>
  </g>
  <g transform="translate(114.45)" font-family="URW Palladio L" font-size="7.2162" font-weight="500" letter-spacing="0" word-spacing="0">
   <path d="m108.14 83.185v-4.5559h-1.7019v-0.60957h4.0943v0.60957h-1.7089v4.5559h-0.68357"/>
   <path d="m114.62283,78.01964h.68357v2.98443c-1e-005,.51914-.0587.93139-.17618,1.23676s-.33004.55437-.63776.74699-.70706.28541-1.20505.28541c-.4839,0-.87971-.08339-1.18743-.25017s-.52735-.40756-.6589-.72232c-.13154-.31712-.19732-.74934-.19731-1.29666v-2.98443h.68356v2.98091c0,.44866.0411.77988.12332.99364s.22786.37467.42988.48977 .45335.17265.74698.17265c.50269,0 .86092-.11393 1.07468-.34178s.32064-.66595.32064-1.31428v-2.98091"/>
   <path d="m116.44 83.185v-5.1655h0.70118l2.7131 4.0556v-4.0556h0.65538v5.1655h-0.70119l-2.7131-4.0591v4.0591h-0.65537"/>
   <path d="m121.68 83.185v-5.1655h3.7349v0.60957h-3.0514v1.5821h2.8576v0.60605h-2.8576v1.7582h3.1712v0.60957h-3.8547"/>
   <path d="m126.49362,83.18514v-5.1655h2.2903c.4604,5e-006 .81041.04699 1.05001.14094s.43104.25487.57433.48977 .21494.49447.21494.7787c0,.36645-.11863.67535-.35588.92669s-.6037.41108-1.09934.4792c.18087.08692.31829.17266.41225.25722 .19967.18323.38876.41225.56729.68709l.8985,1.40589h-.85974l-.68356-1.07468c-.19967-.31007-.3641-.54732-.4933-.71175s-.24547-.27953-.34883-.34531-.20436-.11158-.31007-.13742c-.0775-.01644-.20437-.02466-.38054-.02466h-.79279v2.29382h-.68357m.68357-2.88577h1.46931c.31242,3e-006 .55671-.03171.73289-.09513 .17618-.06577.31007-.16913.40169-.31007s.13741-.29832.13741-.46511c0-.24429-.0893-.44514-.26778-.60252s-.45572-.23607-.83861-.23608h-1.63491v1.70891"/>
  </g>
 </g>
</svg>
