<?xml version="1.0" encoding="UTF-8"?>
<svg viewBox="0 0 406.25 206.25" xmlns="http://www.w3.org/2000/svg" xmlns:xlink="http://www.w3.org/1999/xlink">
 <defs>
  <linearGradient id="e">
   <stop stop-color="#323232" offset="0"/>
   <stop stop-color="#969696" offset="1"/>
  </linearGradient>
  <linearGradient id="g">
   <stop stop-color="#bebebe" offset="0"/>
   <stop stop-color="#d2d2d2" offset="1"/>
  </linearGradient>
  <linearGradient id="d">
   <stop offset="0"/>
   <stop stop-opacity="0" offset="1"/>
  </linearGradient>
  <linearGradient id="c">
   <stop stop-color="#646464" offset="0"/>
   <stop stop-color="#fff" offset="1"/>
  </linearGradient>
  <linearGradient id="a">
   <stop offset="0"/>
   <stop stop-color="#fff" offset="1"/>
  </linearGradient>
  <linearGradient id="b">
   <stop stop-color="#fff" offset="0"/>
   <stop stop-color="#fff" offset=".29381"/>
   <stop stop-color="#fff" stop-opacity="0" offset="1"/>
  </linearGradient>
  <linearGradient id="av" x1="103.67" x2="103.67" y1="192.76" y2="13.305" gradientUnits="userSpaceOnUse">
   <stop offset="0"/>
   <stop stop-opacity=".58823" offset="1"/>
  </linearGradient>
  <linearGradient id="ce" x1="-338.13" x2="-337.99" y1="192.44" y2="214.7" gradientTransform="matrix(1.4613 0 0 .68432 390.99 -110.87)" gradientUnits="userSpaceOnUse" xlink:href="#a"/>
  <linearGradient id="cd" x1="-327.88" x2="-327.78" y1="220.74" y2="233.92" gradientTransform="matrix(1.5659 0 0 .7328 331.41 -147.92)" gradientUnits="userSpaceOnUse" xlink:href="#a"/>
  <linearGradient id="cc" x1="62.743" x2="65.902" gradientUnits="userSpaceOnUse" xlink:href="#b" spreadMethod="reflect"/>
  <linearGradient id="cb" x1="547.19" x2="556.78" y1="132.62" y2="170.49" gradientTransform="matrix(.25443 0 0 1.216 -77.065 -108.07)" gradientUnits="userSpaceOnUse" xlink:href="#b"/>
  <linearGradient id="ca" x1="547.19" x2="556.78" y1="132.62" y2="170.49" gradientTransform="matrix(.33968 0 0 2.9439 -124.12 -349.24)" gradientUnits="userSpaceOnUse" xlink:href="#a"/>
  <linearGradient id="bz" x1="500.99" x2="520.82" y1="162.27" y2="162.19" gradientTransform="matrix(.35887 0 0 2.7865 -124.12 -349.24)" gradientUnits="userSpaceOnUse" xlink:href="#c" spreadMethod="reflect"/>
  <linearGradient id="by" x2="0" y1="168.33" y2="37.022" gradientUnits="userSpaceOnUse" xlink:href="#a"/>
  <linearGradient id="bx" x2="0" y1="166.57" y2="34.57" gradientUnits="userSpaceOnUse" xlink:href="#d"/>
  <linearGradient id="bw" x1="338.45" x2="332.51" y1="369.62" y2="391.98" gradientTransform="matrix(.20916 -.79862 .59792 .09964 -89.948 253.27)" gradientUnits="userSpaceOnUse" xlink:href="#b"/>
  <linearGradient id="bv" x1="338.45" x2="332.51" y1="369.62" y2="391.98" gradientTransform="matrix(.20853 -.82126 .598 .10214 -47.052 257.22)" gradientUnits="userSpaceOnUse" xlink:href="#b"/>
  <linearGradient id="bu" x1="338.45" x2="332.51" y1="369.62" y2="391.98" gradientTransform="matrix(1.0228 0 0 .61083 -77.594 -210.32)" gradientUnits="userSpaceOnUse" xlink:href="#b"/>
  <linearGradient id="bt" x1="333.63" x2="327.73" y1="404.93" y2="386.89" gradientTransform="matrix(1.2736 0 0 1.2199 -160.71 -452.61)" gradientUnits="userSpaceOnUse" xlink:href="#b"/>
  <linearGradient id="bs" x1="340.57" x2="363.78" y1="396.86" y2="421.52" gradientTransform="matrix(1.0913 0 0 .91634 -124.12 -349.24)" gradientUnits="userSpaceOnUse" xlink:href="#a"/>
  <linearGradient id="br" x1="338.45" x2="332.51" y1="369.62" y2="391.98" gradientTransform="matrix(1.0228 0 0 .61083 -120.76 -208.42)" gradientUnits="userSpaceOnUse" xlink:href="#b"/>
  <linearGradient id="bq" x1="333.63" x2="327.73" y1="404.93" y2="386.89" gradientTransform="matrix(1.2736 0 0 1.2199 -203.88 -450.71)" gradientUnits="userSpaceOnUse" xlink:href="#b"/>
  <linearGradient id="bp" x1="288.19" x2="293.4" y1="437.92" y2="443.32" gradientTransform="matrix(1.1812 0 0 .84661 -124.12 -349.24)" gradientUnits="userSpaceOnUse" xlink:href="#a"/>
  <linearGradient id="bo" x1="346.49" x2="346.49" y1="15.495" y2="27.639" gradientUnits="userSpaceOnUse" xlink:href="#b"/>
  <linearGradient id="bn" x1="202.39" x2="202.49" y1="850.5" y2="853.86" gradientTransform="matrix(2.3299 0 0 .51472 -123.62 -424.93)" gradientUnits="userSpaceOnUse" xlink:href="#b" spreadMethod="reflect"/>
  <linearGradient id="bm" x1="333.85" x2="372.15" gradientUnits="userSpaceOnUse" xlink:href="#c" spreadMethod="reflect"/>
  <linearGradient id="bl" x1="203.41" x2="217.54" y1="826.88" y2="841.11" gradientTransform="matrix(2.2338 0 0 .53685 -123.62 -424.93)" gradientUnits="userSpaceOnUse" xlink:href="#a"/>
  <linearGradient id="bk" x1="-227.78" x2="-185.93" y1="576.82" y2="565.61" gradientTransform="matrix(2.3702 0 0 .42191 349.24 -124.12)" gradientUnits="userSpaceOnUse" xlink:href="#a"/>
  <linearGradient id="bj" x1="638.2" x2="639.63" y1="300.2" y2="315.39" gradientTransform="matrix(.72008 0 0 1.3887 -124.12 -349.24)" gradientUnits="userSpaceOnUse" xlink:href="#a" spreadMethod="reflect"/>
  <linearGradient id="bi" x2="0" y1="76.245" y2="154.42" gradientUnits="userSpaceOnUse" xlink:href="#a"/>
  <linearGradient id="bh" x1="253.62" x2="227.15" y1="111.57" y2="85.087" gradientUnits="userSpaceOnUse" xlink:href="#b" spreadMethod="reflect"/>
  <linearGradient id="f" x2="0" y1="164.31" y2="64.172" gradientUnits="userSpaceOnUse" xlink:href="#a"/>
  <linearGradient id="bg" x1="258.44" x2="257.64" y1="48.971" y2="120.4" gradientUnits="userSpaceOnUse" xlink:href="#a" spreadMethod="reflect"/>
  <linearGradient id="bf" x2="0" y1="64.153" y2="167.04" gradientUnits="userSpaceOnUse" xlink:href="#a"/>
  <linearGradient id="be" x2="0" y1="170.72" y2="57.306" gradientUnits="userSpaceOnUse" xlink:href="#a"/>
  <linearGradient id="bd" x2="0" y1="51.25" y2="181.59" gradientUnits="userSpaceOnUse" xlink:href="#d"/>
  <linearGradient id="bc" x1="337.99" x2="336.71" y1="361.39" y2="369.08" gradientTransform="matrix(.83405 0 0 1.199 -124.12 -349.24)" gradientUnits="userSpaceOnUse" xlink:href="#a" spreadMethod="reflect"/>
  <linearGradient id="bb" x1="234.9" x2="243.75" y1="340.22" y2="372" gradientTransform="matrix(.83405 0 0 1.199 -124.12 -349.24)" gradientUnits="userSpaceOnUse" xlink:href="#a" spreadMethod="reflect"/>
  <linearGradient id="ba" x2="0" y1="71.379" y2="75.917" gradientUnits="userSpaceOnUse" xlink:href="#a" spreadMethod="reflect"/>
  <linearGradient id="az" x2="0" y1="70.32" y2="72.051" gradientUnits="userSpaceOnUse" xlink:href="#a" spreadMethod="reflect"/>
  <linearGradient id="ay" x2="0" y1="166.48" y2="177.64" gradientUnits="userSpaceOnUse" xlink:href="#d"/>
  <linearGradient id="ax" x1="132.97" x2="111.13" y1="103.59" y2="79.278" gradientUnits="userSpaceOnUse" xlink:href="#c"/>
  <linearGradient id="aw" x2="0" y1="291.46" y2="3.6053" gradientUnits="userSpaceOnUse" xlink:href="#c"/>
  <linearGradient id="au" x1="21.875" x2="34.875" y1="116.33" y2="116.33" gradientUnits="userSpaceOnUse" xlink:href="#d"/>
  <linearGradient id="at" x2="0" y1="167.15" y2="71.249" gradientUnits="userSpaceOnUse" xlink:href="#e"/>
  <linearGradient id="as" x2="0" y1="166.18" y2="83.253" gradientUnits="userSpaceOnUse" xlink:href="#a"/>
  <linearGradient id="ar" x1="254.84" x2="254.82" y1="113.88" y2="42.035" gradientUnits="userSpaceOnUse" xlink:href="#c"/>
  <linearGradient id="aq" x1="409.32" x2="389.56" y1="405.39" y2="350.86" gradientTransform="matrix(.91078 0 0 1.098 -124.12 -349.24)" gradientUnits="userSpaceOnUse" xlink:href="#a"/>
  <linearGradient id="ap" x2="0" y1="185.01" y2="11.46" gradientUnits="userSpaceOnUse" xlink:href="#a"/>
  <linearGradient id="ao" x2="0" y1="17.206" y2="187.32" gradientUnits="userSpaceOnUse" xlink:href="#a"/>
  <linearGradient id="an" x2="0" y1="82.422" y2="84.007" gradientUnits="userSpaceOnUse" xlink:href="#a" spreadMethod="reflect"/>
  <linearGradient id="am" x2="0" y1="82.422" y2="86.654" gradientUnits="userSpaceOnUse" xlink:href="#a" spreadMethod="reflect"/>
  <linearGradient id="al" x1="641.06" x2="639.63" y1="319.18" y2="327.54" gradientTransform="matrix(.72008 0 0 1.3887 -124.12 -349.24)" gradientUnits="userSpaceOnUse" xlink:href="#a" spreadMethod="reflect"/>
  <linearGradient id="ak" x1="348.82" x2="348.82" y1="168.91" y2="38.125" gradientUnits="userSpaceOnUse" xlink:href="#c"/>
  <linearGradient id="aj" x2="0" y1="166.72" y2="37.5" gradientUnits="userSpaceOnUse" xlink:href="#a"/>
  <linearGradient id="ai" x1="272.22" x2="308.27" y1="285.29" y2="262.76" gradientTransform="matrix(.5547 0 0 1.8028 -124.12 -349.24)" gradientUnits="userSpaceOnUse" xlink:href="#a" spreadMethod="reflect"/>
  <linearGradient id="ah" x2="0" y1="14.533" y2="191.96" gradientUnits="userSpaceOnUse" xlink:href="#g"/>
  <linearGradient id="ag" x2="0" y1="22.904" y2="2.9032" gradientUnits="userSpaceOnUse" xlink:href="#b"/>
  <linearGradient id="af" x2="0" y1="-380.87" y2="-400.7" gradientUnits="userSpaceOnUse" xlink:href="#b"/>
  <linearGradient id="ae" x2="0" y1="45.699" y2="25.875" gradientUnits="userSpaceOnUse" xlink:href="#b"/>
  <linearGradient id="ad" x2="0" y1="-183.13" y2="-202.68" gradientUnits="userSpaceOnUse" xlink:href="#b"/>
  <linearGradient id="ac" x1="219.61" x2="169.11" y1="385.29" y2="327.65" gradientTransform="matrix(.79349 0 0 1.2602 -124.12 -349.24)" gradientUnits="userSpaceOnUse" xlink:href="#a"/>
  <linearGradient id="ab" x2="0" y1="195.31" y2="4.6877" gradientUnits="userSpaceOnUse" xlink:href="#e"/>
  <radialGradient id="p" cx="258.44" cy="115.59" r="22.961" gradientUnits="userSpaceOnUse">
   <stop stop-color="#531971" offset="0"/>
   <stop stop-color="#2c1254" offset=".60601"/>
   <stop offset=".80525"/>
   <stop stop-opacity="0" offset="1"/>
  </radialGradient>
  <radialGradient id="n" cx="81.898" cy="1244.3" r="87.749" gradientTransform="matrix(2.904 0 0 .42713 -164.03 -349.24)" gradientUnits="userSpaceOnUse">
   <stop stop-color="#7d7d7d" offset="0"/>
   <stop stop-color="#dcdcdc" offset="1"/>
  </radialGradient>
  <radialGradient id="aa" cx="387.73" cy="177.34" r="15.509" gradientTransform="matrix(.56479 .11444 .10965 2.8513 -205.54 -428.78)" gradientUnits="userSpaceOnUse" xlink:href="#b"/>
  <radialGradient id="z" cx="387.73" cy="177.34" r="15.509" gradientTransform="matrix(.27881 .064539 -.23189 2.7936 -31.55 -441.92)" gradientUnits="userSpaceOnUse" xlink:href="#d"/>
  <radialGradient id="y" cx="263.6" cy="30.386" r="4.2073" gradientUnits="userSpaceOnUse" xlink:href="#b"/>
  <radialGradient id="x" cx="260.64" cy="22.69" r="1.9799" gradientUnits="userSpaceOnUse" xlink:href="#b"/>
  <radialGradient id="w" cx="261.38" cy="25.571" r="10.005" gradientUnits="userSpaceOnUse" xlink:href="#b"/>
  <radialGradient id="v" cx="331.9" cy="204.99" r="17.615" fx="331.78" fy="205.33" gradientTransform="matrix(.43133 0 0 2.3184 -124.12 -349.24)" gradientUnits="userSpaceOnUse" xlink:href="#b"/>
  <radialGradient id="u" cx="222.23" cy="31.838" r="4.2073" gradientUnits="userSpaceOnUse" xlink:href="#b"/>
  <radialGradient id="t" cx="336.94" cy="375.66" r="1.4142" gradientTransform="matrix(1.4633 0 0 1.4 -276.38 -500.44)" gradientUnits="userSpaceOnUse" xlink:href="#b"/>
  <radialGradient id="s" cx="218.22" cy="27.47" r="10.005" gradientUnits="userSpaceOnUse" xlink:href="#b"/>
  <radialGradient id="r" cx="241.22" cy="99.436" r="26.974" gradientUnits="userSpaceOnUse" xlink:href="#b"/>
  <radialGradient id="q" cx="251.26" cy="110.56" r="3.6055" gradientUnits="userSpaceOnUse" xlink:href="#b"/>
  <radialGradient id="o" cx="237.61" cy="174.31" r="117.49" gradientUnits="userSpaceOnUse" xlink:href="#g"/>
  <radialGradient id="m" cx="272.22" cy="277.4" r="36.908" fx="270.42" fy="276.28" gradientTransform="matrix(.5547 0 0 1.8028 -124.12 -349.24)" gradientUnits="userSpaceOnUse" xlink:href="#a" spreadMethod="reflect"/>
  <radialGradient id="l" cx="164.88" cy="367.25" r="14.883" gradientTransform="matrix(0 1.3333 -1.3333 0 870.69 -196.87)" gradientUnits="userSpaceOnUse" xlink:href="#b"/>
  <radialGradient id="k" cx="164.88" cy="367.25" r="14.883" gradientTransform="matrix(0 -1.3333 -1.3333 0 870.69 403.12)" gradientUnits="userSpaceOnUse" xlink:href="#b"/>
  <radialGradient id="j" cx="164.88" cy="367.25" r="14.883" gradientTransform="matrix(0 -1.3333 1.3333 0 -443.94 403.12)" gradientUnits="userSpaceOnUse" xlink:href="#b"/>
  <radialGradient id="i" cx="45.719" cy="22.971" r="19.532" gradientUnits="userSpaceOnUse" xlink:href="#b"/>
  <radialGradient id="h" cx="195.34" cy="367.99" r="10.19" gradientTransform="matrix(.79349 0 0 1.2602 -124.12 -349.24)" gradientUnits="userSpaceOnUse" xlink:href="#e" spreadMethod="reflect"/>
 </defs>
 <path d="m30.875 63.138c-13.8 0-25 17.92-25 40s11.2 40 25 40 25-17.92 25-40-11.2-40-25-40zm-10 30c5.52 0 10 4.48 10 10s-4.4801 10-10 10-10-4.48-10-10 4.4801-10 10-10z" fill="url(#h)" fill-rule="evenodd" stroke="#000" stroke-linecap="round" stroke-linejoin="round" stroke-opacity=".19608"/>
 <path d="m45.875,3.12536h335a20,20 0 0,1 20,20v160a20,20 0 0,1 -20,20h-335a20,20 0 0,1 -20-20v-160a20,20 0 0,1 20-20" fill="url(#ab)" fill-rule="evenodd"/>
 <path d="m26.469 65.857c-15.49 7.2223-19.485 26.812-18.284 42.397 1.1267 12.795 6.4204 28.96 20.261 32.474 13.66 1.8046 21.565-13.225 23.942-24.646 3.5126-16.592 0.95957-36.815-12.887-48.1-3.9227-2.5328-8.4951-3.3852-13.031-2.125zm-5.1875 25.312c11.12-0.11543 15.868 16.28 6.1298 21.816-9.1959 7.0835-22.729-4.6378-17.411-14.878 2.1822-4.2678 6.462-6.9704 11.281-6.9375z" fill="none" opacity=".56345" stroke="url(#ac)" stroke-linecap="round" stroke-linejoin="round" stroke-width="2"/>
 <path d="m45.875 23.125h-20c0-11.04 8.96-20 20-20l5e-5 20z" fill="url(#i)" fill-rule="evenodd"/>
 <path d="m45.875 183.13v20c-11.04 0-20-8.96-20-20l20-5e-5z" fill="url(#j)" fill-rule="evenodd"/>
 <path d="m380.87 183.13v20c11.04 0 20-8.96 20-20l-20-5e-5z" fill="url(#k)" fill-rule="evenodd"/>
 <path d="m380.87 23.125v-20c11.04 0 20 8.96 20 20l-20 5e-5z" fill="url(#l)" fill-rule="evenodd"/>
 <path transform="scale(-1)" d="m-380.88-203.13h335v20h-335z" fill="url(#ad)" fill-rule="evenodd"/>
 <path transform="rotate(-90)" d="m-183.13 25.875h160v20h-160z" fill="url(#ae)" fill-rule="evenodd"/>
 <path transform="matrix(0,-1,-1,0,0,0)" d="m-183.13-400.88h160v20h-160z" fill="url(#af)" fill-rule="evenodd"/>
 <path d="m45.875 3.1254h335v20h-335z" fill="url(#ag)" fill-rule="evenodd"/>
 <path d="m50.875 13.125h325.79a10 10 0 0 1 10 10v160.17a10 10 0 0 1 -10 10h-325.79a10 10 0 0 1 -10 -10v-160.17a10 10 0 0 1 10 -10" fill="url(#ah)" fill-rule="evenodd"/>
 <path d="m23.375 38.125h35a2.5 65 0 0 1 2.5 65 2.5 65 0 0 1 -2.5 65h-35a2.5 65 0 0 1 -2.5 -65 2.5 65 0 0 1 2.5 -65" fill="url(#ai)" fill-rule="evenodd"/>
 <path d="m315.88 38.125h70v135h-70z" fill="url(#ak)" fill-rule="evenodd" opacity=".8" stroke="url(#aj)" stroke-linecap="round" stroke-linejoin="round" stroke-width="1.25"/>
 <path d="m315.88 38.125h70v135h-70z" fill="url(#al)" fill-rule="evenodd" opacity=".03"/>
 <path d="m315.88 38.125h70v135h-70z" fill="url(#am)" fill-rule="evenodd" opacity=".03"/>
 <path d="m315.88 38.125h70v135h-70z" fill="url(#an)" fill-rule="evenodd" opacity=".03"/>
 <path d="m186.1 12.924h124.41c3.2874 0 6.069 4.9306 6.069 5.9167 15.172 33.528 15.172 132.14 0 165.67 0 0.98614-2.023 6.1633-6.069 5.9167h-124.41c-3.3622 0-6.0689-2.6388-6.0689-5.9167v-165.67c0-3.2779 2.7067-5.9167 6.0689-5.9167z" fill="none" stroke="url(#ao)" stroke-linecap="round" stroke-linejoin="round" stroke-opacity=".78431" stroke-width="1.25"/>
 <path d="m187.38 14.125h122.07c3.2256 0 5.9549 4.8639 5.9549 5.8367 14.887 33.074 14.887 130.35 0 163.43 0 0.9728-1.985 6.0799-5.9549 5.8367h-122.07c-3.299 0-5.9549-2.6032-5.9549-5.8367v-163.43c0-3.2335 2.6559-5.8367 5.9549-5.8367z" fill="#9f9f9f" fill-rule="evenodd" stroke="url(#ap)" stroke-linecap="round" stroke-linejoin="round" stroke-opacity=".78431" stroke-width="1.25"/>
 <path d="m181.44 38.138v50h144.75c-0.59339-18.396-2.2694-36.035-5.2812-50h-139.47z" fill="url(#ar)" fill-rule="evenodd" stroke="url(#aq)" stroke-linecap="round" stroke-linejoin="round" stroke-opacity=".78431" stroke-width="1.25"/>
 <path d="m181.44 107.13v62.013h138.88c3.8001-16.625 5.7232-39.098 6.0625-62.013h-144.94z" fill="url(#as)" fill-rule="evenodd"/>
 <path d="m181.44 108.14v60h138.88c3.8001-16.085 5.7232-37.828 6.0625-60h-144.94z" fill="url(#at)" fill-rule="evenodd"/>
 <path d="m23.375 38.125h35a2.5 65 0 0 1 2.5 65 2.5 65 0 0 1 -2.5 65h-35a2.5 65 0 0 1 -2.5 -65 2.5 65 0 0 1 2.5 -65" fill="url(#m)" fill-rule="evenodd" opacity=".55838"/>
 <path d="m23.375 38.125h35a2.5 65 0 0 1 2.5 65 2.5 65 0 0 1 -2.5 65h-35a2.5 65 0 0 1 -2.5 -65 2.5 65 0 0 1 2.5 -65" fill="url(#au)" fill-rule="evenodd" opacity=".61421"/>
 <path d="m53.039 13.625h117.84c24.808 0 24.808 180 0 180h-117.84c-12.404 1e-5 -12.404-180 0-180z" fill="none" opacity=".5" stroke="url(#av)" stroke-linecap="round" stroke-linejoin="round" stroke-width="3"/>
 <path d="m53.039 13.121c-2.5547 0-4.5445 7.6089-6.0469 19.327h135.98c-3.0047-11.717-6.9844-19.327-12.094-19.327h-117.84z" fill="#fafafa" fill-rule="evenodd" stroke="#000" stroke-linecap="round" stroke-linejoin="round" stroke-opacity=".39216"/>
 <path d="m47.73 33.138c-4.245 34.63-4.2468 105.38 0 140h134.53c8.4935-34.615 8.4901-105.37 0-140h-134.53z" fill="url(#aw)" fill-rule="evenodd"/>
 <path d="m64.641 40.125a7.5 65 0 0 1 7.5 65 7.5 65 0 0 1 -7.5 65 7.5 65 0 0 1 -7.5 -65 7.5 65 0 0 1 7.5 -65" fill-rule="evenodd" opacity=".5"/>
 <path d="m48.275 33.862c-4.2114 34.272-4.2131 104.3 0 138.55h133.47c8.4262-34.258 8.4229-104.28 0-138.55h-133.47z" fill="none" stroke="url(#ax)" stroke-linecap="round" stroke-linejoin="round" stroke-width="2"/>
 <path d="m46.992 172.64c1.5021 12.114 3.4936 20 6.0469 20h117.84c5.1065 0 9.0895-7.8861 12.094-20h-135.98z" fill="url(#n)" fill-rule="evenodd" stroke="#000" stroke-linecap="round" stroke-linejoin="round" stroke-opacity=".39216"/>
 <path d="m46.992 172.64c1.5021 12.114 3.4936 20 6.0469 20h117.84c5.1065 0 9.0895-7.8861 12.094-20h-135.98z" fill="url(#ay)" fill-rule="evenodd" opacity=".5"/>
 <path d="m48.59 35.388c-4.192 33.517-4.1937 102 0 135.5h132.85c8.3874-33.503 8.3841-101.98 0-135.5h-132.85z" fill="url(#az)" fill-rule="evenodd" opacity=".03"/>
 <path d="m48.59 35.388c-4.192 33.517-4.1937 102 0 135.5h132.85c8.3874-33.503 8.3841-101.98 0-135.5h-132.85z" fill="url(#ba)" fill-rule="evenodd" opacity=".03"/>
 <path d="m48.59 35.388c-4.192 33.517-4.1937 102 0 135.5h132.85c8.3874-33.503 8.3841-101.98 0-135.5h-132.85z" fill="url(#bb)" fill-rule="evenodd" opacity=".05"/>
 <path d="m48.59 35.388c-4.192 33.517-4.1937 102 0 135.5h132.85c8.3874-33.503 8.3841-101.98 0-135.5h-132.85z" fill="url(#bc)" fill-rule="evenodd" opacity=".03"/>
 <path d="m320.25 115.59c0 34.151-27.674 61.835-61.812 61.835s-61.812-27.685-61.812-61.835 27.674-61.835 61.812-61.835 61.812 27.685 61.812 61.835z" fill="none" opacity=".6" stroke="#000" stroke-linecap="round" stroke-linejoin="round" stroke-opacity=".78431" stroke-width="1.25"/>
 <path d="m320.25 115.59c0 34.151-27.674 61.835-61.812 61.835s-61.812-27.685-61.812-61.835 27.674-61.835 61.812-61.835 61.812 27.685 61.812 61.835z" fill="none" opacity=".8" stroke="url(#bd)" stroke-linecap="round" stroke-linejoin="round" stroke-opacity=".78431" stroke-width="2.5"/>
 <path d="m318.41 115.58c0 33.134-26.85 59.994-59.972 59.994s-59.972-26.86-59.972-59.994 26.85-59.994 59.972-59.994 59.972 26.86 59.972 59.994z" fill="url(#o)" fill-rule="evenodd" stroke="url(#be)" stroke-linecap="round" stroke-linejoin="round" stroke-opacity=".78431" stroke-width="1.25"/>
 <path d="m309.9 115.59c0 28.432-23.04 51.48-51.461 51.48s-51.461-23.048-51.461-51.48 23.04-51.48 51.461-51.48 51.461 23.048 51.461 51.48z" fill-rule="evenodd" stroke="url(#bf)" stroke-linecap="round" stroke-linejoin="round" stroke-opacity=".78431" stroke-width="1.25"/>
 <path d="m309.16 115.59c0 28.023-22.709 50.741-50.721 50.74s-50.721-22.717-50.721-50.74 22.709-50.741 50.721-50.741 50.721 22.717 50.721 50.741z" fill="url(#bg)" fill-rule="evenodd" stroke="url(#f)" stroke-linecap="round" stroke-linejoin="round" stroke-opacity=".78431" stroke-width="1.25"/>
 <path d="m309.16 115.59c0 28.023-22.709 50.741-50.721 50.74s-50.721-22.717-50.721-50.74 22.709-50.741 50.721-50.741 50.721 22.717 50.721 50.741z" fill="url(#bh)" fill-rule="evenodd" opacity=".85" stroke="url(#f)" stroke-linecap="round" stroke-linejoin="round" stroke-opacity=".78431" stroke-width="1.25"/>
 <path d="m297.65 115.59c0 21.666-17.557 39.23-39.215 39.23s-39.215-17.564-39.215-39.23 17.557-39.23 39.215-39.23 39.215 17.564 39.215 39.23z" fill="#505050" fill-rule="evenodd" stroke="url(#bi)" stroke-linecap="round" stroke-linejoin="round" stroke-opacity=".78431" stroke-width="1.25"/>
 <path d="m235.19 88.345c-7.8102 6.6315-12.875 16.394-12.875 27.438 0 11.111 5.1378 20.931 13.031 27.562h46.188c7.8934-6.6319 13.031-16.452 13.031-27.562 0-11.043-5.0648-20.806-12.875-27.438h-46.5z" fill-rule="evenodd"/>
 <path d="m237.14 89.972c-7.1528 6.2393-11.791 15.425-11.791 25.815 0 10.454 4.7054 19.693 11.934 25.932h42.3c7.2291-6.2397 11.934-15.479 11.934-25.932 0-10.39-4.6385-19.576-11.791-25.815h-42.586z" fill="#191919" fill-rule="evenodd"/>
 <path d="m281.4 115.59c0 12.686-10.28 22.969-22.961 22.969s-22.961-10.284-22.961-22.969 10.28-22.969 22.961-22.969 22.961 10.284 22.961 22.969z" fill="url(#p)" fill-rule="evenodd"/>
 <path d="m281.4 115.59c0 12.686-10.28 22.969-22.961 22.969s-22.961-10.284-22.961-22.969 10.28-22.969 22.961-22.969 22.961 10.284 22.961 22.969z" fill="url(#q)" fill-rule="evenodd" opacity=".44503"/>
 <path d="m281.4 115.59c0 12.686-10.28 22.969-22.961 22.969s-22.961-10.284-22.961-22.969 10.28-22.969 22.961-22.969 22.961 10.284 22.961 22.969z" fill="url(#r)" fill-rule="evenodd" opacity=".19895"/>
 <path d="m385.17 46.982c-2.9005 8.6378-5 31.529-5 58.656s2.0995 49.987 5 58.625v-117.28z" fill-opacity=".78431" fill-rule="evenodd" opacity=".7"/>
 <path d="m315.88 38.125h70v135h-70z" fill="url(#bj)" fill-rule="evenodd" opacity=".03"/>
 <path transform="rotate(-90)" d="m-142.77359,123.0159c-.23048.90235-.64454,1.57227-1.24219,2.00977s-1.40039.65625-2.4082.65625c-1.47657,0-2.64356-.40723-3.50098-1.22168s-1.28613-1.91895-1.28613-3.31348c0-1.39843.42871-2.50488 1.28613-3.31934s2.02441-1.22167 3.50098-1.22168c.51952,1e-005 1.06054.06251 1.62305.1875 .56249.12501 1.15819.31446 1.78711.56836v2.15039h-.74415c-.15235-.73436-.42969-1.28417-.83203-1.64941s-.9336-.54784-1.59375-.54785c-.85156,1e-005-1.48438.31348-1.89843.94043s-.6211,1.59082-.6211,2.8916 .20703,2.26367.6211,2.88867 1.05077.9375 1.91015.9375c.58203,0 1.05761-.16211 1.42676-.48633s.63769-.81445.80566-1.4707h1.16602zm7.23047-1.33008v3.11719h.89062v.70898h-2.96484v-.79101c-.27344.32812-.57813.57031-.91406.72656s-.71876.23438-1.14844.23438c-.63672,0-1.12598-.1709-1.46777-.5127s-.5127-.83105-.5127-1.46777c0-.69922.24512-1.22266.73535-1.57032s1.22949-.52148 2.21778-.52148h1.08984v-.36914c0-.5039-.11915-.87597-.35742-1.11621s-.60743-.36035-1.10742-.36035c-.41407,0-.7334.08496-.95801.25488s-.38379.44825-.47754.83496h-.66211v-1.3418c.37109-.1328.75586-.23241 1.1543-.29882s.81835-.09961 1.25976-.09961c1.11328,0 1.92871.20703 2.44629.62109s.77636,1.06446.77637,1.95117zm-2.07422,1.86914v-1.24804h-.7793c-.38672,0-.68359.10547-.89062.3164s-.31055.51368-.31055.9082 .07519.68946.22559.88477 .37988.29297.68847.29297c.32031,0 .57812-.10547.77344-.31641s.29297-.49023.29297-.83789zm10.5293-3.25195c.28905-.41406.60155-.71582.9375-.90527s.7285-.28418 1.17773-.28418c.71483,0 1.24901.20215 1.60254.60644s.53026,1.01465.53027,1.83106v3.25195h.89063v.70898h-3.70899v-.70898h.74414v-2.94141c0-.77734-.05957-1.26757-.17871-1.4707s-.34083-.30468-.66504-.30469c-.36719,1e-005-.65235.14161-.85546.42481s-.3047.68652-.30469,1.20996v3.08203h.74414v.70898h-3.5625v-.70898h.74414v-2.94141c-1e-005-.77734-.06055-1.26757-.18164-1.4707s-.3418-.30468-.66211-.30469c-.3711,1e-005-.65821.14161-.86133.42481s-.30469.68652-.30469,1.20996v3.08203h.74414v.70898h-3.70312v-.70898h.88477v-4.81055h-.88477v-.70898h2.95898v.8789c.24219-.36327.51953-.6289.83204-.79687s.68358-.25195 1.11328-.25195c.5078,0 .91991.09668 1.23632.29003s.56054.49317.73243.89942zm10.23047,1.69336c-1e-005-.82031-.07618-1.3955-.22852-1.72559s-.41211-.49511-.7793-.49511c-.35547,0-.61035.16211-.76465.48632s-.23144.8672-.23144,1.62891v.10547h2.00391zm2.27929.69726h-4.2832v.04688c0,.80469.12109,1.38574.36328,1.74316s.63281.53614 1.17188.53614c.44921,0 .81249-.11914 1.08984-.35743s.45507-.58398.5332-1.03711h.97266c-.16798.70704-.50196,1.22657-1.00195,1.5586s-1.19923.49805-2.09766.49805c-1.07813,0-1.90528-.28418-2.48145-.85254s-.86425-1.37988-.86425-2.43457c0-1.03125.29492-1.83594.88476-2.41407s1.41016-.86718 2.46094-.86718c1.03124,0 1.82226.30371 2.37305.91113s.84374,1.49707.8789,2.66894zm6.9961-3.48046v1.85742h-.66211c-.02345-.33203-.11329-.5791-.26953-.74121s-.38282-.24316-.67969-.24317c-.45313,1e-005-.81055.19923-1.07227.59766s-.39258.95117-.39258,1.6582v2.46094h1.13086v.70898h-4.08984v-.70898h.88477v-4.81055h-.94922v-.70898h3.02343v1.10742c.20313-.43359.47168-.75488.80567-.96387s.74316-.31347 1.22754-.31347c.12109,0 .26855.00879.44238.02636s.37402.042.60059.07325zm6.49218,2.47265v3.11719h.89063v.70898h-2.96485v-.79101c-.27344.32812-.57812.57031-.91406.72656s-.71875.23438-1.14844.23438c-.63672,0-1.12597-.1709-1.46777-.5127s-.51269-.83105-.51269-1.46777c0-.69922.24511-1.22266.73535-1.57032s1.22949-.52148 2.21777-.52148h1.08984v-.36914c0-.5039-.11914-.87597-.35742-1.11621s-.60742-.36035-1.10742-.36035c-.41406,0-.7334.08496-.95801.25488s-.38379.44825-.47754.83496h-.66211v-1.3418c.3711-.1328.75586-.23241 1.1543-.29882s.81836-.09961 1.25977-.09961c1.11327,0 1.9287.20703 2.44629.62109s.77636,1.06446.77636,1.95117zm-2.07422,1.86914v-1.24804h-.77929c-.38672,0-.6836.10547-.89063.3164s-.31055.51368-.31054.9082 .07519.68946.22558.88477 .37988.29297.68848.29297c.32031,0 .57812-.10547.77344-.31641s.29296-.49023.29296-.83789z" fill="none" stroke="#fff" stroke-opacity=".19608" stroke-width=".625"/>
 <path transform="rotate(-90)" d="m-141.35959,121.60191c-.23048.90235-.64454,1.57227-1.24219,2.00977s-1.40039.65625-2.4082.65625c-1.47657,0-2.64356-.40723-3.50098-1.22168s-1.28613-1.91894-1.28613-3.31348c0-1.39843.42871-2.50487 1.28613-3.31933s2.02441-1.22167 3.50098-1.22168c.51953,1e-005 1.06054.06251 1.62305.1875 .56249.12501 1.15819.31446 1.78711.56836v2.15039h-.74414c-.15236-.73437-.4297-1.28418-.83203-1.64942s-.9336-.54784-1.59375-.54785c-.85157,1e-005-1.48438.31349-1.89844.94043s-.6211,1.59083-.6211,2.8916 .20703,2.26368.6211,2.88867c.41406.62501 1.05077.93751 1.91015.9375 .58203,1e-005 1.05761-.1621 1.42676-.48632s.63769-.81445.80567-1.47071h1.16601zm7.23047-1.33007v3.11718h.89063v.70899h-2.96485v-.79102c-.27344.32813-.57813.57031-.91406.72656s-.71875.23438-1.14844.23438c-.63672,0-1.12598-.1709-1.46777-.5127s-.5127-.83105-.5127-1.46777c0-.69922.24512-1.22265.73535-1.57031s1.22949-.52148 2.21778-.52149h1.08984v-.36914c0-.5039-.11914-.87597-.35742-1.11621s-.60743-.36034-1.10742-.36035c-.41407,1e-005-.7334.08497-.95801.25488s-.38379.44825-.47754.83496h-.66211v-1.34179c.37109-.13281.75586-.23242 1.1543-.29883s.81835-.0996 1.25976-.09961c1.11328,1e-005 1.92871.20704 2.44629.62109s.77636,1.06446.77637,1.95118zm-2.07422,1.86914v-1.24805h-.7793c-.38672,0-.68359.10547-.89062.31641s-.31055.51367-.31055.9082 .0752.68945.22559.88476 .37988.29297.68848.29297c.3203,0 .57812-.10547.77343-.3164s.29297-.49024.29297-.83789zm10.5293-3.25196c.28905-.41405.60155-.71581.9375-.90527s.7285-.28417 1.17773-.28418c.71484,1e-005 1.24902.20215 1.60254.60645s.53026,1.01465.53028,1.83105v3.25195h.89062v.70899h-3.70898v-.70899h.74414v-2.9414c-1e-005-.77734-.05958-1.26758-.17871-1.47071s-.34083-.30468-.66504-.30468c-.3672,0-.65236.1416-.85547.4248s-.3047.68653-.30469,1.20996v3.08203h.74414v.70899h-3.5625v-.70899h.74414v-2.9414c0-.77734-.06055-1.26758-.18164-1.47071s-.3418-.30468-.66211-.30468c-.3711,0-.65821.1416-.86133.4248s-.30469.68653-.30468,1.20996v3.08203h.74414v.70899h-3.70313v-.70899h.88477v-4.81054h-.88477v-.70899h2.95899v.87891c.24218-.36328.51952-.6289.83203-.79688s.68359-.25194 1.11328-.25195c.5078,1e-005 .91991.09669 1.23633.29004s.56054.49317.73242.89941zm10.23047,1.69336c-1e-005-.82031-.07618-1.3955-.22852-1.72558s-.41211-.49512-.7793-.49512c-.35547,0-.61035.16211-.76464.48633s-.23145.86719-.23145,1.6289v.10547h2.00391zm2.27929.69727h-4.2832v.04687c0,.80469.12109,1.38575.36328,1.74317s.63281.53613 1.17188.53613c.44921,0 .81249-.11914 1.08984-.35742s.45507-.58399.5332-1.03711h.97266c-.16798.70703-.50196,1.22656-1.00195,1.55859s-1.19923.49805-2.09766.49805c-1.07813,0-1.90527-.28418-2.48144-.85254s-.86426-1.37988-.86426-2.43457c0-1.03125.29492-1.83593.88476-2.41406s1.41016-.86718 2.46094-.86719c1.03125,1e-005 1.82226.30372 2.37305.91113s.84374,1.49708.8789,2.66895zm6.9961-3.48047v1.85742h-.66211c-.02345-.33203-.11329-.5791-.26953-.74121s-.38282-.24316-.67969-.24316c-.45313,0-.81055.19922-1.07227.59765s-.39258.95118-.39257,1.65821v2.46093h1.13086v.70899h-4.08985v-.70899h.88477v-4.81054h-.94922v-.70899h3.02344v1.10742c.20312-.43358.47167-.75487.80566-.96386s.74316-.31347 1.22754-.31348c.12109,1e-005 .26855.0088.44238.02637s.37402.042.60059.07324zm6.49219,2.47266v3.11718h.89063v.70899h-2.96484v-.79102c-.27345.32813-.57813.57031-.91407.72656s-.71875.23438-1.14843.23438c-.63672,0-1.12598-.1709-1.46778-.5127s-.51269-.83105-.51269-1.46777c0-.69922.24511-1.22265.73535-1.57031s1.22949-.52148 2.21777-.52149h1.08985v-.36914c-1e-005-.5039-.11915-.87597-.35743-1.11621s-.60742-.36034-1.10742-.36035c-.41406,1e-005-.7334.08497-.95801.25488s-.38379.44825-.47753.83496h-.66211v-1.34179c.37109-.13281.75585-.23242 1.15429-.29883s.81836-.0996 1.25977-.09961c1.11328,1e-005 1.9287.20704 2.44629.62109s.77636,1.06446.77636,1.95118zm-2.07421,1.86914v-1.24805h-.7793c-.38672,0-.6836.10547-.89063.31641s-.31054.51367-.31054.9082 .07519.68945.22558.88476 .37988.29297.68848.29297c.32031,0 .57812-.10547.77344-.3164s.29296-.49024.29297-.83789z" fill="none" stroke="#000" stroke-opacity=".19608" stroke-width=".625"/>
 <path transform="rotate(-90)" d="m-141.85959,122.10191c-.23048.90235-.64454,1.57227-1.24219,2.00977s-1.40039.65625-2.4082.65625c-1.47657,0-2.64356-.40723-3.50098-1.22168s-1.28613-1.91894-1.28613-3.31348c0-1.39843.42871-2.50487 1.28613-3.31933s2.02441-1.22167 3.50098-1.22168c.51953,1e-005 1.06054.06251 1.62305.1875 .56249.12501 1.15819.31446 1.78711.56836v2.15039h-.74414c-.15236-.73437-.4297-1.28418-.83203-1.64942s-.9336-.54784-1.59375-.54785c-.85157,1e-005-1.48438.31349-1.89844.94043s-.6211,1.59083-.6211,2.8916 .20703,2.26368.6211,2.88867c.41406.62501 1.05077.93751 1.91015.9375 .58203,1e-005 1.05761-.1621 1.42676-.48632s.63769-.81445.80567-1.47071h1.16601zm7.23047-1.33007v3.11718h.89063v.70899h-2.96485v-.79102c-.27344.32813-.57813.57031-.91406.72656s-.71875.23438-1.14844.23438c-.63672,0-1.12598-.1709-1.46777-.5127s-.5127-.83105-.5127-1.46777c0-.69922.24512-1.22265.73535-1.57031s1.22949-.52148 2.21778-.52149h1.08984v-.36914c0-.5039-.11914-.87597-.35742-1.11621s-.60743-.36034-1.10742-.36035c-.41407,1e-005-.7334.08497-.95801.25488s-.38379.44825-.47754.83496h-.66211v-1.34179c.37109-.13281.75586-.23242 1.1543-.29883s.81835-.0996 1.25976-.09961c1.11328,1e-005 1.92871.20704 2.44629.62109s.77636,1.06446.77637,1.95118zm-2.07422,1.86914v-1.24805h-.7793c-.38672,0-.68359.10547-.89062.31641s-.31055.51367-.31055.9082 .0752.68945.22559.88476 .37988.29297.68848.29297c.3203,0 .57812-.10547.77343-.3164s.29297-.49024.29297-.83789zm10.5293-3.25196c.28905-.41405.60155-.71581.9375-.90527s.7285-.28417 1.17773-.28418c.71484,1e-005 1.24902.20215 1.60254.60645s.53026,1.01465.53028,1.83105v3.25195h.89062v.70899h-3.70898v-.70899h.74414v-2.9414c-1e-005-.77734-.05958-1.26758-.17871-1.47071s-.34083-.30468-.66504-.30468c-.3672,0-.65236.1416-.85547.4248s-.3047.68653-.30469,1.20996v3.08203h.74414v.70899h-3.5625v-.70899h.74414v-2.9414c0-.77734-.06055-1.26758-.18164-1.47071s-.3418-.30468-.66211-.30468c-.3711,0-.65821.1416-.86133.4248s-.30469.68653-.30468,1.20996v3.08203h.74414v.70899h-3.70313v-.70899h.88477v-4.81054h-.88477v-.70899h2.95899v.87891c.24218-.36328.51952-.6289.83203-.79688s.68359-.25194 1.11328-.25195c.5078,1e-005 .91991.09669 1.23633.29004s.56054.49317.73242.89941zm10.23047,1.69336c-1e-005-.82031-.07618-1.3955-.22852-1.72558s-.41211-.49512-.7793-.49512c-.35547,0-.61035.16211-.76464.48633s-.23145.86719-.23145,1.6289v.10547h2.00391zm2.27929.69727h-4.2832v.04687c0,.80469.12109,1.38575.36328,1.74317s.63281.53613 1.17188.53613c.44921,0 .81249-.11914 1.08984-.35742s.45507-.58399.5332-1.03711h.97266c-.16798.70703-.50196,1.22656-1.00195,1.55859s-1.19923.49805-2.09766.49805c-1.07813,0-1.90527-.28418-2.48144-.85254s-.86426-1.37988-.86426-2.43457c0-1.03125.29492-1.83593.88476-2.41406s1.41016-.86718 2.46094-.86719c1.03125,1e-005 1.82226.30372 2.37305.91113s.84374,1.49708.8789,2.66895zm6.9961-3.48047v1.85742h-.66211c-.02345-.33203-.11329-.5791-.26953-.74121s-.38282-.24316-.67969-.24316c-.45313,0-.81055.19922-1.07227.59765s-.39258.95118-.39257,1.65821v2.46093h1.13086v.70899h-4.08985v-.70899h.88477v-4.81054h-.94922v-.70899h3.02344v1.10742c.20312-.43358.47167-.75487.80566-.96386s.74316-.31347 1.22754-.31348c.12109,1e-005 .26855.0088.44238.02637s.37402.042.60059.07324zm6.49219,2.47266v3.11718h.89062v.70899h-2.96484v-.79102c-.27345.32813-.57813.57031-.91407.72656s-.71875.23438-1.14843.23438c-.63672,0-1.12598-.1709-1.46778-.5127s-.51269-.83105-.51269-1.46777c0-.69922.24511-1.22265.73535-1.57031s1.22949-.52148 2.21777-.52149h1.08985v-.36914c-1e-005-.5039-.11915-.87597-.35743-1.11621s-.60742-.36034-1.10742-.36035c-.41406,1e-005-.7334.08497-.95801.25488s-.38379.44825-.47753.83496h-.66211v-1.34179c.37109-.13281.75585-.23242 1.15429-.29883s.81836-.0996 1.25977-.09961c1.11328,1e-005 1.9287.20704 2.44629.62109s.77636,1.06446.77637,1.95118zm-2.07422,1.86914v-1.24805h-.7793c-.38672,0-.6836.10547-.89063.31641s-.31054.51367-.31054.9082 .07519.68945.22558.88476 .37988.29297.68848.29297c.32031,0 .57812-.10547.77344-.3164s.29296-.49024.29297-.83789z" fill="url(#bk)" stroke="#000" stroke-opacity=".78431" stroke-width=".625"/>
 <path transform="rotate(-90)" d="m-128.66444,347.21399v-8.58984h2.95899c.66796,0 1.17773.04102 1.52929.12304 .49219.11329.91211.31837 1.25977.61524 .45312.38282.79199.87207 1.0166,1.46777s.33691,1.27637.33692,2.04199c-1e-005,.65235-.07618,1.23047-.22852,1.73438s-.34766.9209-.58594,1.25097-.49903.58985-.78222.7793-.62501.33301-1.02539.43066-.86036.14649-1.37989.14649h-3.09961zm1.13672-1.01367h1.83399c.5664,0 1.01073-.05274 1.333-.15821s.5791-.2539.77051-.44531c.26953-.26953.47949-.63183.62989-1.08691s.22557-1.00683.22558-1.65528c-1e-005-.89843-.14747-1.58886-.44238-2.07128s-.65333-.80566-1.0752-.96973c-.30469-.11718-.79492-.17578-1.4707-.17578h-1.80469v6.5625zm7.40625-6.36328v-1.21289h1.05469v1.21289h-1.05469zm0,7.37695v-6.22266h1.05469v6.22266h-1.05469zm2.47266.51562 1.02539.15235c.04297.3164.16211.54687.35742.6914 .26172.19532.61914.29297 1.07227.29297 .48827,0 .86523-.09765 1.13086-.29297s.4453-.46875.53906-.82031c.05468-.21484.08007-.66601.07617-1.35351-.46094.54297-1.03516.81445-1.72266.81445-.85547,0-1.51758-.30859-1.98632-.92578s-.70313-1.35742-.70313-2.22071c0-.59374.10742-1.14159.32227-1.64355s.52636-.88964.93457-1.16309 .88769-.41015 1.43847-.41015c.73437,0 1.33984.29688 1.81641.89062v-.75h.97266v5.37891c-1e-005,.96875-.09864,1.65527-.2959,2.05957s-.50977.72363-.9375.95801-.95411.35156-1.5791.35156c-.74219,0-1.3418-.16699-1.79883-.50098s-.67774-.83691-.66211-1.50879zm.87305-3.73828c-1e-005,.81641.1621,1.41211.48632,1.78711s.73047.5625 1.21875.5625c.48437,0 .89062-.18652 1.21875-.55957s.49219-.958.49219-1.75488c0-.76172-.16895-1.33593-.50683-1.72266s-.74513-.58007-1.22168-.58008c-.46876,1e-005-.86719.19044-1.19532.57129s-.49219.9463-.49218,1.69629zm6.00585-4.15429v-1.21289h1.05469v1.21289h-1.05469zm0,7.37695v-6.22266h1.05469v6.22266h-1.05469zm2.41407-2.75977 1.07226-.09375c.05078.42969.16895.78223.3545,1.05762s.47363.49805.86425.66797 .83008.25488 1.31836.25488c.43359,0 .8164-.06445 1.14844-.19336s.5791-.30566.74121-.53027 .24316-.46972.24316-.73535-.07813-.50488-.23437-.70606-.41407-.37011-.77344-.50683c-.23047-.08984-.74024-.22949-1.52929-.41895s-1.3418-.36816-1.65821-.53613c-.41016-.21484-.71582-.48144-.91699-.79981s-.30176-.67479-.30176-1.06933c0-.43359.12305-.83886.36914-1.21582s.60547-.66308 1.07813-.8584 .99804-.29296 1.57617-.29297c.63671,1e-005 1.19824.10255 1.68457.30762s.86035.50684 1.12207.90527 .40234.84962.42188,1.35352l-1.08985.08203c-.0586-.54296-.25684-.95312-.59472-1.23047s-.83692-.41601-1.49708-.41602c-.6875,1e-005-1.18847.12599-1.50292.37793s-.47169.55567-.47168.91114c-1e-005,.3086.11132.5625.33398.76172s.79004.40332 1.71387.6123 1.55761.39161 1.90136.54785c.5.23047.86914.52247 1.10743.87598s.35741.76074.35742,1.22168-.13087.88769-.39258,1.29199-.6377.71875-1.12793.94336-1.042.33691-1.65527.33691c-.77735,0-1.42872-.11328-1.9541-.33984s-.93751-.56738-1.23633-1.02246-.45606-.96973-.47168-1.54395zm8.26758,2.75977v-8.58984h1.05468v3.08203c.49218-.57031 1.11328-.85547 1.86328-.85547 .46093,0 .86132.09082 1.20117.27246s.583.43262.72949.75293 .21972.78516.21973,1.39453v3.94336h-1.05469v-3.94336c0-.52734-.11426-.91113-.34277-1.15137s-.55176-.36034-.96973-.36035c-.3125,1e-005-.60645.08106-.88184.24317s-.47168.38184-.58887.65917-.17578.66017-.17578,1.14844v3.4043h-1.05468zm6.28711-3.11133c0-1.15234.32031-2.00585.96094-2.56055 .53515-.46093 1.1875-.6914 1.95703-.6914 .85546,0 1.55468.28028 2.09766.84082s.81445,1.33496.81445,2.32324c-1e-005,.80078-.12012,1.43067-.36035,1.88965s-.58985.81543-1.04883,1.06933-.95996.38086-1.50293.38086c-.8711,0-1.5752-.27929-2.11231-.83789s-.80566-1.36328-.80566-2.41406zm1.08398,0c0,.79688.17383,1.39356.52148,1.79004s.78515.59473 1.3125.59473c.52343,0 .95898-.19922 1.30664-.59766s.52148-1.00586.52148-1.82227c-1e-005-.76952-.17481-1.35253-.52441-1.74902s-.78418-.59472-1.30371-.59473c-.52735,1e-005-.96485.19728-1.3125.5918s-.52149.99024-.52148,1.78711zm8.29102,2.16797 .15234.93164c-.29688.0625-.5625.09375-.79688.09375-.38282,0-.67969-.06055-.89063-.18164s-.35938-.28027-.44531-.47754-.12891-.6123-.12891-1.24512v-3.58007h-.77344v-.82032h.77344v-1.54101l1.04883-.63282v2.17383h1.06055v.82032h-1.06055v3.63867c0,.30078.01855.49414.05566.58008s.09765.15429.18164.20507 .2041.07618.36035.07618c.11718,0 .27148-.01368.46289-.04102zm-26.42579,9.93164 1.13672.28711c-.23829.9336-.667,1.64551-1.28613,2.13574s-1.37598.73535-2.27051.73535c-.92578,0-1.67871-.18847-2.25879-.56543s-1.02148-.92285-1.32422-1.63769-.4541-1.48242-.4541-2.30274c0-.89452.1709-1.67479.5127-2.34082s.82812-1.17186 1.45898-1.51757 1.32519-.51855 2.08301-.51856c.85937,1e-005 1.58202.21876 2.16797.65625s.99413,1.05274 1.22461,1.8457l-1.11914.26368c-.19923-.625-.48829-1.08007-.86719-1.36524s-.85547-.42772-1.42969-.42773c-.66016,1e-005-1.21192.15821-1.65527.47461s-.75489.74121-.93457,1.27441-.26953,1.08301-.26953,1.64941c0,.73048.10644,1.36817.31933,1.91309s.54395.95215.99317,1.22168 .93554.4043 1.45898.4043c.63672,0 1.17578-.1836 1.61719-.55078s.74023-.91211.89648-1.63477zm7.58789-3.47461-1.04882.08203c-.09376-.41405-.22657-.71483-.39844-.90234-.28516-.30078-.63672-.45117-1.05469-.45117-.33594,0-.63086.09375-.88476.28125-.33204.24219-.59376.59571-.78516,1.06054s-.29102,1.12696-.29883,1.98633c.25391-.38671.56445-.67382.93164-.86133s.75195-.28124 1.1543-.28125c.70312,1e-005 1.30175.2588 1.7959.77637s.7412,1.18653.74121,2.00684c-1e-005,.53906-.11622,1.04004-.34863,1.50293s-.55177.81738-.95801,1.06347-.86719.36914-1.38282.36914c-.8789,0-1.5957-.32324-2.15039-.96972s-.83203-1.71191-.83203-3.19629c0-1.66015.30664-2.86718.91992-3.6211 .53516-.65624 1.25586-.98436 2.16211-.98437 .67578,1e-005 1.22949.18946 1.66114.56836s.69042.90235.77636,1.57031zm-4.30664,3.70313c0,.36328.07715.71094.23145,1.04296s.37011.58497.64746.75879 .56836.26075.87305.26075c.44531,0 .82812-.17969 1.14843-.53907s.48047-.84765.48047-1.46484c0-.59375-.1582-1.06152-.47461-1.40332s-.71484-.51269-1.19531-.5127-.88086.17091-1.21289.5127-.49805.79004-.49805,1.34473zm5.51368-1.45313c0-1.01562.10449-1.833.31347-2.45215s.51953-1.09667.93164-1.43261 .93066-.5039 1.55567-.50391c.46093,1e-005 .86523.09278 1.21289.27832s.63476.45313.86133.80273 .40429.7754.5332,1.27735 .19335,1.17871.19336,2.03027c-1e-005,1.00782-.10352,1.82129-.31055,2.44043s-.51661,1.09766-.92871,1.43555-.93262.50683-1.56152.50683c-.82813,0-1.47852-.29687-1.95118-.89062-.5664-.71484-.8496-1.8789-.8496-3.49219zm1.08398,0c0,1.41016.16504,2.34864.49512,2.81543s.7373.7002 1.22168.7002 .8916-.23438 1.22168-.70313 .49511-1.40625.49512-2.8125-.16504-2.35351-.49512-2.81836-.74121-.69726-1.2334-.69726c-.48438,0-.8711.20508-1.16016.61523-.36328.52344-.54492,1.49024-.54492,2.90039z"/>
 <path d="m314.11 16.372h69.523a2.1213 2.1213 0 0 1 2.1213 2.1213v12.286a2.1213 2.1213 0 0 1 -2.1213 2.1213h-69.523a2.1213 2.1213 0 0 1 -2.1213 -2.1213v-12.286a2.1213 2.1213 0 0 1 2.1213 -2.1213" fill="url(#bm)" fill-rule="evenodd" stroke="url(#bl)" stroke-linecap="round" stroke-linejoin="round" stroke-width="1.25"/>
 <path d="m313.97 17.446h69.812v14.38h-69.812z" fill="url(#bn)" fill-rule="evenodd" opacity=".4"/>
 <path d="m314.32 18.166h69.112v8.7437h-69.112z" fill="url(#bo)" fill-rule="evenodd" opacity=".6"/>
 <path d="m202.88 15.128h30.684a2 2 0 0 1 2 2v20.683a2 2 0 0 1 -2 2h-30.684a2 2 0 0 1 -2 -2v-20.683a2 2 0 0 1 2 -2" fill="#191919" fill-rule="evenodd" opacity=".9" stroke="url(#bp)" stroke-linecap="round" stroke-linejoin="round" stroke-width=".625"/>
 <path d="m227.92 27.47c0 5.347-4.3447 9.6816-9.7042 9.6816s-9.7042-4.3346-9.7042-9.6816 4.3447-9.6815 9.7042-9.6815 9.7042 4.3346 9.7042 9.6815z" fill="url(#s)" fill-rule="evenodd" opacity=".28934"/>
 <path d="m230.79 27.47c0 6.6484-5.6268 12.038-12.568 12.038s-12.568-5.3896-12.568-12.038 5.6268-12.038 12.568-12.038 12.568 5.3896 12.568 12.038z" fill="url(#bq)" fill-rule="evenodd" opacity=".2335"/>
 <path d="m228.31 31.005c0 3.3289-4.5188 6.0276-10.093 6.0276s-10.093-2.6986-10.093-6.0276 4.5188-6.0276 10.093-6.0276 10.093 2.6986 10.093 6.0276z" fill="url(#br)" fill-rule="evenodd"/>
 <path d="m218.74 25.485c0.00165 0.7084-0.39242 1.3637-1.0334 1.7183s-1.4311 0.35465-2.0721 0-1.035-1.0099-1.0334-1.7183 0.39242-1.3637 1.0334-1.7183 1.4311-0.35465 2.0721 0 1.035 1.0099 1.0334 1.7183z" fill="url(#t)" fill-rule="evenodd"/>
 <path d="m226.43 31.838c0.00336 1.5054-0.79781 2.8978-2.101 3.6514s-2.9096 0.75363-4.2127 0-2.1043-2.1461-2.1009-3.6514 0.7978-2.8978 2.1009-3.6514 2.9096-0.75363 4.2127 0 2.1043 2.1461 2.101 3.6514z" fill="url(#u)" fill-rule="evenodd" opacity=".75127"/>
 <path d="m21.156 86.076c-0.07122 6.0519-0.28125 10.388-0.28125 17.062 0 25.085 0.54724 46.093 1.3438 56.938 1.3363 2.8287 2.7091 4.7814 3.9688 4.6562 4.1735-0.41471 5.729-18.943 3.5-41.375-1.7058-17.166-5.1383-31.608-8.5312-37.281z" fill="url(#v)" fill-rule="evenodd"/>
 <path d="m254.28 14.576c-3.855 2.4783-6.4375 6.7985-6.4375 11.719s2.5825 9.2092 6.4375 11.688h15c3.8566-2.478 6.4375-6.7661 6.4375-11.688s-2.5809-9.2407-6.4375-11.719h-15z" fill-rule="evenodd" opacity=".85" stroke="url(#bs)" stroke-linecap="round" stroke-linejoin="round" stroke-width=".85"/>
 <path d="m271.09 25.571c0 5.347-4.3447 9.6815-9.7042 9.6815s-9.7042-4.3346-9.7042-9.6815 4.3447-9.6816 9.7042-9.6816 9.7042 4.3346 9.7042 9.6816z" fill="url(#w)" fill-rule="evenodd" opacity=".28934"/>
 <path d="m273.95 25.571c0 6.6484-5.6268 12.038-12.568 12.038s-12.568-5.3896-12.568-12.038 5.6268-12.038 12.568-12.038 12.568 5.3896 12.568 12.038z" fill="url(#bt)" fill-rule="evenodd" opacity=".2335"/>
 <path d="m271.48 29.105c0 3.3289-4.5188 6.0276-10.093 6.0276s-10.093-2.6986-10.093-6.0276 4.5188-6.0276 10.093-6.0276 10.093 2.6986 10.093 6.0276z" fill="url(#bu)" fill-rule="evenodd"/>
 <path d="m262.62 22.69c0.00158 0.7084-0.37544 1.3637-0.98868 1.7183s-1.3692 0.35465-1.9824 0-0.99026-1.0099-0.98868-1.7183 0.37544-1.3637 0.98868-1.7183 1.3692-0.35465 1.9824 0 0.99026 1.0099 0.98868 1.7183z" fill="url(#x)" fill-rule="evenodd"/>
 <path d="m267.81 30.386c0.00336 1.5054-0.79781 2.8978-2.101 3.6514s-2.9096 0.75363-4.2127 0-2.1043-2.1461-2.1009-3.6514 0.7978-2.8978 2.1009-3.6514 2.9096-0.75363 4.2127 0 2.1043 2.1461 2.101 3.6514z" fill="url(#y)" fill-rule="evenodd" opacity=".75127"/>
 <path d="m258.52 16.972c3.259 0.55665 4.9797 4.6362 3.8432 9.112s-4.6997 7.6528-7.9588 7.0962-4.9797-4.6362-3.8432-9.112 4.6997-7.6528 7.9588-7.0962z" fill="url(#bv)" fill-rule="evenodd"/>
 <path d="m215.81 19.766c3.2586 0.54302 4.9761 4.5116 3.8362 8.864s-4.7056 7.4406-7.9642 6.8975-4.9761-4.5116-3.8362-8.864 4.7056-7.4406 7.9642-6.8975z" fill="url(#bw)" fill-rule="evenodd"/>
 <path d="m63.375 38.125a7.5 65 0 0 1 7.5 65 7.5 65 0 0 1 -7.5 65 7.5 65 0 0 1 -7.5 -65 7.5 65 0 0 1 7.5 -65" fill="url(#by)" fill-rule="evenodd" stroke="url(#bx)" stroke-linecap="round" stroke-linejoin="round" stroke-opacity=".19608" stroke-width="2"/>
 <path d="m63.375 38.125a7.5 65 0 0 1 7.5 65 7.5 65 0 0 1 -7.5 65 7.5 65 0 0 1 -7.5 -65 7.5 65 0 0 1 7.5 -65" fill="url(#bz)" fill-rule="evenodd" opacity=".65"/>
 <path d="m61.524 53.125h3.7018a3.9183 50 0 0 1 3.9183 50 3.9183 50 0 0 1 -3.9183 50h-3.7018a3.9183 50 0 0 1 -3.9183 -50 3.9183 50 0 0 1 3.9183 -50" fill="url(#ca)" fill-rule="evenodd" opacity=".53807" stroke="#000" stroke-linecap="round" stroke-linejoin="round" stroke-opacity=".39216"/>
 <path d="m63.375 58.125a4.3212 20.653 0 0 1 4.3212 20.653 4.3212 20.653 0 0 1 -4.3212 20.653 4.3212 20.653 0 0 1 -4.3212 -20.653 4.3212 20.653 0 0 1 4.3212 -20.653" fill="url(#cb)" fill-rule="evenodd"/>
 <path d="m62.24 59.334h2.2692a3.9183 43.792 0 0 1 3.9183 43.792 3.9183 43.792 0 0 1 -3.9183 43.792h-2.2692a3.9183 43.792 0 0 1 -3.9183 -43.792 3.9183 43.792 0 0 1 3.9183 -43.792" fill="url(#cc)" fill-rule="evenodd" opacity=".24365"/>
 <path d="m39.755 79.531c-1.9862 23.929-5.5323 42.878-7.9205 42.326s-2.714-20.399-0.72783-44.328 5.5323-42.878 7.9205-42.326 2.714 20.399 0.72783 44.328z" fill="url(#z)" fill-rule="evenodd" opacity=".62437"/>
 <path d="m41.657 123.03c0.93923 24.423-2.2211 43.427-7.0589 42.446s-9.5209-21.573-10.46-45.996 2.2211-43.427 7.0589-42.446 9.5209 21.573 10.46 45.996z" fill="url(#aa)" fill-rule="evenodd" opacity=".49239"/>
 <path transform="matrix(0 -.64618 1.5476 0 0 0)" d="m-190.25237,21.93784c.58984.15235 1.03808.417 1.34473.79395s.45995.85645.45996,1.43848c-1e-005,.86719-.33204,1.52637-.99609,1.97754s-1.63282.67676-2.90625.67676c-.44922,0-.89942-.03613-1.35059-.1084s-.89746-.18066-1.33886-.3252v-1.74023c.42187.21094.84081.37012 1.25683.47754s.82519.16113 1.22754.16113c.59765,0 1.05566-.10351 1.37402-.31055s.47754-.5039.47754-.89063c0-.39843-.16309-.70019-.48926-.90527s-.80762-.30761-1.44433-.30762h-.90235v-1.45313h.94922c.5664,1e-005 .98828-.08886 1.26563-.2666s.41601-.44824.41601-.81152c0-.33593-.13477-.5957-.40429-.7793s-.6504-.27538-1.14258-.27539c-.36329,1e-005-.73047.04102-1.10156.12305s-.74024.20313-1.10743.36328v-1.65234c.44532-.12499.88672-.21874 1.32422-.28125s.86719-.09374 1.28906-.09375c1.13672,1e-005 1.9873.18653 2.55176.55957s.84667.93458.84668,1.68457c-1e-005,.51172-.13477.93067-.4043,1.25683s-.66797.55567-1.19531.68848zm3.97852,2.44922h2.10937v2.26758h-2.10937v-2.26758zm6.80273.60938h3.8496v1.6582h-6.35742v-1.6582l3.19336-2.81836c.28515-.25781.49609-.50976.63281-.75586s.20508-.50195.20508-.76758c0-.41015-.1377-.74023-.41308-.99023s-.64161-.37499-1.09864-.375c-.35156,1e-005-.73633.0752-1.15429.22559s-.86524.37403-1.3418.6709v-1.92187c.50781-.16796 1.00976-.29589 1.50586-.38379s.98242-.13183 1.45898-.13184c1.04687,1e-005 1.86035.23048 2.44043.69141s.87011,1.10352.87012,1.92773c-1e-005,.47657-.12306.9209-.36914,1.33301s-.76368.96387-1.55274,1.65527l-1.86913,1.64062z" opacity=".51777" stroke="url(#cd)"/>
 <path transform="matrix(0 -.89321 1.1196 0 0 0)" d="m-121.82 19.051h2.8711l1.9922 4.6816 2.0039-4.6816h2.8652v8.748h-2.1328v-6.3984l-2.0156 4.7168h-1.4297l-2.0156-4.7168v6.3984h-2.1387v-8.748zm11.953 0h6.0879v1.7051h-3.832v1.6289h3.6035v1.7051h-3.6035v2.0039h3.9609v1.7051h-6.2168v-8.748zm16.066 8.0976c-0.56251 0.27344-1.1465 0.47852-1.752 0.61523s-1.2305 0.20508-1.875 0.20508c-1.457 0-2.6113-0.40723-3.4629-1.2217s-1.2773-1.9189-1.2773-3.3135c0-1.4102 0.43359-2.5195 1.3008-3.3281s2.0547-1.2129 3.5625-1.2129c0.58202 1e-5 1.1396 0.0547 1.6728 0.16406s1.0361 0.27149 1.5088 0.48633v1.8105c-0.48829-0.27734-0.97364-0.48437-1.456-0.62109s-0.96582-0.20507-1.4502-0.20508c-0.89844 1e-5 -1.5908 0.25098-2.0772 0.75293s-0.72949 1.2197-0.72949 2.1533 0.23437 1.6406 0.70312 2.1445 1.1348 0.75586 1.998 0.75586c0.23437 0 0.45214-0.01465 0.65332-0.04395s0.38183-0.07519 0.54199-0.1377v-1.6992h-1.377v-1.5117h3.5156v4.207zm7.289-0.94336h-3.5273l-0.55664 1.5938h-2.2676l3.2402-8.748h2.6894l3.2402 8.748h-2.2676l-0.55078-1.5938zm-2.9648-1.623h2.3965l-1.1953-3.4805-1.2012 3.4805zm-36.211 2.6112h3.7441c1.1133 1e-5 1.9678 0.24708 2.5635 0.74121s0.89355 1.1982 0.89356 2.1123c-1e-5 0.91797-0.29786 1.624-0.89356 2.1182s-1.4502 0.74121-2.5635 0.74121h-1.4883v3.0352h-2.2558v-8.748zm2.2558 1.6348v2.4434h1.248c0.43749 1e-5 0.77538-0.10644 1.0137-0.31933s0.35741-0.51464 0.35742-0.90527-0.11915-0.6914-0.35742-0.90234-0.57618-0.3164-1.0137-0.3164h-1.248zm6.5332-1.6348h2.2558v8.748h-2.2558v-8.748zm9.3515 4.2832 3.0352 4.4648h-2.3496l-2.0449-2.9883-2.0273 2.9883h-2.3613l3.0352-4.4648-2.918-4.2832h2.3555l1.916 2.8184 1.9102-2.8184h2.3672l-2.918 4.2832zm4.3828-4.2832h6.0879v1.7051h-3.832v1.6289h3.6035v1.7051h-3.6035v2.0039h3.9609v1.7051h-6.2168v-8.748zm8.2031 0h2.2558v7.043h3.9609v1.7051h-6.2168v-8.748zm13.728 0.27539v1.8516c-0.48047-0.21484-0.94922-0.37694-1.4062-0.48633s-0.88868-0.16406-1.2949-0.16406c-0.53907 1e-5 -0.9375 0.07423-1.1953 0.22266s-0.38672 0.37891-0.38672 0.6914c0 0.23438 0.08691 0.417 0.26074 0.54785s0.48925 0.24317 0.94629 0.33691l0.96094 0.19336c0.97265 0.19532 1.664 0.49219 2.0742 0.89062s0.61523 0.96485 0.61523 1.6992c-1e-5 0.96484-0.28614 1.6826-0.8584 2.1533s-1.4463 0.70605-2.6221 0.70605c-0.55469 0-1.1113-0.05273-1.6699-0.1582s-1.1172-0.26172-1.6758-0.46875v-1.9043c0.55859 0.29688 1.0986 0.52051 1.6201 0.6709s1.0244 0.22559 1.5088 0.22559c0.49218 0 0.86913-0.08203 1.1309-0.24609s0.39257-0.39843 0.39258-0.70312c-1e-5 -0.27343-0.08887-0.48437-0.2666-0.63281s-0.53223-0.28125-1.0635-0.39844l-0.87305-0.19336c-0.875-0.1875-1.5146-0.48632-1.9189-0.89648s-0.60644-0.96288-0.60644-1.6582c0-0.87109 0.28125-1.541 0.84375-2.0098s1.3711-0.70312 2.4258-0.70312c0.48046 1e-5 0.9746 0.03614 1.4824 0.1084s1.0332 0.18067 1.5762 0.3252z" opacity=".68528" stroke="url(#ce)"/>
</svg>
