<?xml version="1.0" encoding="utf-8"?>
<!-- Generator: Adobe Illustrator 19.2.1, SVG Export Plug-In . SVG Version: 6.00 Build 0)  -->
<svg version="1.1" id="Ebene_1" xmlns="http://www.w3.org/2000/svg" xmlns:xlink="http://www.w3.org/1999/xlink" x="0px" y="0px"
	 viewBox="0 0 960 669" style="enable-background:new 0 0 960 669;" xml:space="preserve">
<style type="text/css">
	.st0{fill:#151515;}
	.st1{fill:#72797F;}
	.st2{fill:#383D43;}
	.st3{fill:#474E56;}
	.st4{fill:#777777;}
	.st5{fill:#272E36;}
	.st6{fill:#192028;}
	.st7{fill:#39A31F;}
	.st8{fill:url(#SVGID_1_);}
</style>
<g>
	<path class="st0" d="M198,296.5L198,296.5c3.9,0,7.1-3.2,7.1-7.1v-85.5c0-3.9-3.2-7.1-7.1-7.1l0,0c-3.9,0-7.1,3.2-7.1,7.1v85.5
		C190.9,293.3,194.1,296.5,198,296.5z"/>
	<path class="st1" d="M195,181c0,0-0.3,0-45,0s-65,34-65,56.7s0.5,166.2,0.5,222.9c0,40.5,38.5,65.1,50.5,65.1s59,0,59,0V181z"/>
	<g>
		<circle class="st2" cx="140.5" cy="267.2" r="27.9"/>
		<circle class="st3" cx="140.5" cy="267.2" r="20.5"/>
	</g>
	<rect x="168.4" y="211.7" class="st2" width="18.3" height="6.7"/>
	<rect x="151.3" y="418.7" class="st2" width="21.3" height="21.3"/>
	<circle class="st2" cx="143.2" cy="338.8" r="12.5"/>
	<circle class="st2" cx="170.5" cy="363.8" r="12.5"/>
	<circle class="st2" cx="143.2" cy="390.2" r="12.5"/>
	<circle class="st2" cx="115.5" cy="363.8" r="12.5"/>
</g>
<g>
	<path class="st0" d="M782.9,298.3L782.9,298.3c3.9,0,7.1-3.2,7.1-7.1v-85.5c0-3.9-3.2-7.1-7.1-7.1l0,0c-3.9,0-7.1,3.2-7.1,7.1v85.5
		C775.8,295,779,298.3,782.9,298.3z"/>
	<path class="st1" d="M788,181c0,0,0.3,0,45,0s65,34,65,56.7s-0.5,166.2-0.5,222.9c0,40.5-38.5,65.1-50.5,65.1s-59,0-59,0V181z"/>
	<g>
		<circle class="st2" cx="843" cy="360.8" r="27.9"/>
		<circle class="st3" cx="843" cy="360.8" r="20.5"/>
	</g>
	<circle class="st2" cx="840.2" cy="239.8" r="12.5"/>
	<circle class="st2" cx="867.5" cy="264.8" r="12.5"/>
	<circle class="st2" cx="840.2" cy="291.2" r="12.5"/>
	<circle class="st2" cx="812.5" cy="264.8" r="12.5"/>
	<g>
		<path class="st2" d="M822.3,438.3c-6.6,0-12-5.4-12-12s5.4-12,12-12s12,5.4,12,12S828.9,438.3,822.3,438.3z"/>
		<path class="st4" d="M822.3,415.8c5.8,0,10.5,4.7,10.5,10.5c0,5.8-4.7,10.5-10.5,10.5c-5.8,0-10.5-4.7-10.5-10.5
			C811.8,420.5,816.5,415.8,822.3,415.8 M822.3,412.8c-7.4,0-13.5,6-13.5,13.5c0,7.4,6,13.5,13.5,13.5s13.5-6,13.5-13.5
			C835.8,418.9,829.7,412.8,822.3,412.8L822.3,412.8z"/>
	</g>
</g>
<path class="st5" d="M778.7,186.4c-0.7-6-1.3-5.4-20.7-5.4c-17.4,0-222.3,0-263,0c0,0-2.5,0-7,0c-40.7,0-245.6,0-263,0
	c-19.3,0-20-0.6-20.7,5.4c-0.7,6-5.3,8.7-9.3,8.7V526h293h7h293V195.2C784,195.2,779.3,192.4,778.7,186.4z"/>
<polygon class="st2" points="818,209 811,209 811,203 807,203 807,209 799,209 799,215 807,215 807,221 811,221 811,215 818,215 "/>
<path class="st6" d="M761,516.7H222.3c-6.6,0-12-5.4-12-12V202.2c0-6.6,5.4-12,12-12H761c6.6,0,12,5.4,12,12v302.5
	C773,511.3,767.6,516.7,761,516.7z"/>
<rect x="255" y="218.3" class="st7" width="474" height="267.7"/>
<linearGradient id="SVGID_1_" gradientUnits="userSpaceOnUse" x1="352.8448" y1="112.9701" x2="496.5068" y2="361.8001">
	<stop  offset="0" style="stop-color:#FFFFFF;stop-opacity:0"/>
	<stop  offset="0.5434" style="stop-color:#FFFFFF;stop-opacity:0.4283"/>
	<stop  offset="0.6344" style="stop-color:#FFFFFF;stop-opacity:0.5"/>
	<stop  offset="0.6542" style="stop-color:#FFFFFF;stop-opacity:0.4717"/>
	<stop  offset="0.9839" style="stop-color:#FFFFFF;stop-opacity:0"/>
</linearGradient>
<path class="st8" d="M222.3,516.7c-6.6,0-12-5.4-12-12V202.2c0-6.6,5.4-12,12-12H761c6.6,0,12,5.4,12,12L222.3,516.7z"/>
</svg>
